<?xml version="1.0" encoding="UTF-8" standalone="no"?>
<svg
   viewBox="0 0 300 300"
   version="1.1"
   id="svg31"
   sodipodi:docname="amarte.svg"
   width="300"
   height="300"
   inkscape:version="1.1.1 (3bf5ae0d25, 2021-09-20)"
   inkscape:export-filename="C:\Users\suitedoalex\sites\brave-logo-0.png"
   inkscape:export-xdpi="561.73712"
   inkscape:export-ydpi="561.73712"
   xmlns:inkscape="http://www.inkscape.org/namespaces/inkscape"
   xmlns:sodipodi="http://sodipodi.sourceforge.net/DTD/sodipodi-0.dtd"
   xmlns="http://www.w3.org/2000/svg"
   xmlns:svg="http://www.w3.org/2000/svg"
   xmlns:rdf="http://www.w3.org/1999/02/22-rdf-syntax-ns#"
   xmlns:cc="http://creativecommons.org/ns#"
   xmlns:dc="http://purl.org/dc/elements/1.1/">
  <metadata
     id="metadata35">
    <rdf:RDF>
      <cc:Work
         rdf:about="">
        <dc:format>image/svg+xml</dc:format>
        <dc:type
           rdf:resource="http://purl.org/dc/dcmitype/StillImage" />
      </cc:Work>
    </rdf:RDF>
  </metadata>
  <sodipodi:namedview
     pagecolor="#ffffff"
     bordercolor="#666666"
     borderopacity="1"
     objecttolerance="10"
     gridtolerance="10"
     guidetolerance="10"
     inkscape:pageopacity="0"
     inkscape:pageshadow="2"
     inkscape:window-width="1920"
     inkscape:window-height="991"
     id="namedview33"
     showgrid="false"
     inkscape:zoom="0.5212857"
     inkscape:cx="-122.77337"
     inkscape:cy="279.11758"
     inkscape:window-x="1911"
     inkscape:window-y="-9"
     inkscape:window-maximized="1"
     inkscape:current-layer="g29"
     inkscape:pagecheckerboard="0"
     width="500px" />
  <defs
     id="defs17">
    <linearGradient
       x1="0.0010835459"
       y1="61.705673"
       x2="121.69413"
       y2="61.705673"
       id="a"
       gradientTransform="scale(0.92289582,1.0835459)"
       gradientUnits="userSpaceOnUse">
      <stop
         stop-color="#F50"
         offset="0%"
         id="stop2" />
      <stop
         stop-color="#F50"
         offset="40.988%"
         id="stop4" />
      <stop
         stop-color="#FF2000"
         offset="58.198%"
         id="stop6" />
      <stop
         stop-color="#FF2000"
         offset="100%"
         id="stop8" />
    </linearGradient>
    <linearGradient
       x1="5.8308024"
       y1="23.863535"
       x2="51.882446"
       y2="23.863535"
       id="b"
       gradientTransform="scale(1.980747,0.50486004)"
       gradientUnits="userSpaceOnUse">
      <stop
         stop-color="#FF452A"
         offset="0%"
         id="stop11" />
      <stop
         stop-color="#FF2000"
         offset="100%"
         id="stop13" />
    </linearGradient>
    <path
       d="M 87.884,13.077 76.372,0 H 35.94 L 24.428,13.077 c 0,0 -10.108,-2.811 -14.881,1.968 0,0 13.477,-1.218 18.11,6.325 0,0 12.495,2.39 14.18,2.39 1.684,0 5.334,-1.406 8.704,-2.53 3.369,-1.125 5.615,-1.133 5.615,-1.133 0,0 2.246,0.008 5.616,1.133 3.37,1.124 7.02,2.53 8.704,2.53 1.685,0 14.18,-2.39 14.18,-2.39 4.632,-7.543 18.11,-6.325 18.11,-6.325 -4.773,-4.78 -14.882,-1.968 -14.882,-1.968"
       id="c"
       inkscape:connector-curvature="0" />
  </defs>
  <g
     id="g29"
     style="fill:none;fill-rule:evenodd"
     transform="matrix(1.5747902,0,0,1.5747902,16.630237,763.27292)">
    <path
       style="fill:#ec5242;stroke-width:0.999997;fill-opacity:1"
       d="m 18.566514,-328.23368 c 0.520923,-2.07549 3.969323,-8.6248 4.541217,-8.6248 0.403989,0 0.765888,0.95539 1.217292,3.21361 0.798555,3.99481 1.468737,5.65318 2.298515,5.68767 0.464536,0.0194 0.399285,0.14404 -0.235679,0.45051 -1.156024,0.55797 -1.930726,-0.0842 -2.535166,-2.10171 -0.41084,-1.37127 -0.592709,-1.5309 -1.744105,-1.5309 -1.157347,0 -1.352017,0.17432 -1.953596,1.74955 -0.76378,1.99992 -2.031907,2.92285 -1.588478,1.15607 z m 4.397903,-4.63633 c -0.122986,-0.45819 -0.226033,-1.0654 -0.228995,-1.34938 -0.0081,-0.78062 -0.791808,-0.13307 -1.228275,1.01494 -0.27524,0.72392 -0.250325,1.0971 0.08716,1.30568 0.81133,0.50143 1.612876,-0.0667 1.370106,-0.97124 z m 9.615102,5.06987 c -0.795342,-0.95831 0.225703,-2.48082 1.870687,-2.78942 1.077865,-0.20222 1.314891,-0.4136 1.218429,-1.08661 -0.163334,-1.13952 -1.338898,-1.30604 -1.620412,-0.22953 -0.237224,0.90714 -1.26033,0.87452 -1.26033,-0.0403 0,-0.85451 1.880699,-1.7179 3.084127,-1.41587 0.998162,0.25053 1.057337,0.39631 1.057337,2.60481 0,1.75141 0.161446,2.4298 0.642294,2.69889 0.443082,0.24797 0.503152,0.44544 0.193677,0.63669 -0.565297,0.34938 -2.01925,-0.091 -2.01925,-0.61146 0,-0.21461 -0.394472,-0.1139 -0.876611,0.22381 -1.102866,0.77247 -1.654469,0.77462 -2.289948,0.008 z m 2.298824,-1.0515 c 0.74849,-0.74848 0.566993,-1.44946 -0.315539,-1.21867 -0.436597,0.11417 -0.788849,0.538 -0.788849,0.94913 0,0.85169 0.419789,0.95414 1.104388,0.26954 z m 4.417804,0.86818 c -0.250536,-0.46813 -0.315644,-1.58977 -0.160279,-2.76098 0.232822,-1.75511 0.179975,-1.97533 -0.479387,-1.99756 -0.609393,-0.0205 -0.576906,-0.0908 0.182825,-0.3952 1.375317,-0.55107 1.639884,-0.16336 1.639884,2.40322 0,1.84251 0.116394,2.28624 0.55552,2.11772 0.532892,-0.20448 0.901171,-0.97619 1.659294,-3.47689 0.191919,-0.63306 0.570813,-1.2247 0.841983,-1.31474 0.361235,-0.11994 0.493028,0.5338 0.493028,2.44564 0,2.34009 0.09092,2.64297 0.880984,2.93524 l 0.880977,0.3259 -0.955104,0.30313 c -0.736029,0.2336 -1.114556,0.10618 -1.650281,-0.55538 l -0.69517,-0.85849 -0.808406,0.80839 c -1.021776,1.02179 -1.846031,1.0287 -2.385868,0.02 z m 7.05363,-0.0462 c -0.65766,-0.65768 -0.791378,-1.1572 -0.630616,-2.35576 0.299104,-2.23001 1.978734,-3.51136 3.831817,-2.92321 0.913004,0.28978 1.07802,1.77493 0.19721,1.77493 -0.325402,0 -0.591639,-0.27859 -0.591639,-0.61908 0,-0.41638 -0.290544,-0.57781 -0.887457,-0.49303 -0.751973,0.10684 -0.905414,0.40226 -1.005056,1.9355 -0.141309,2.17418 0.667525,3.18856 1.919191,2.40688 1.18016,-0.73703 1.450896,-0.52393 0.422658,0.33268 -1.201453,1.0009 -2.214615,0.98257 -3.256108,-0.0588 z m 4.857787,0.36131 c -1.15195,-1.15194 -0.299756,-2.49985 1.85266,-2.93034 1.001958,-0.20039 1.239995,-0.42626 1.145687,-1.08702 -0.166365,-1.16564 -1.893958,-1.4118 -1.893958,-0.26986 0,0.88904 -0.573585,1.08927 -1.025542,0.35798 -0.37044,-0.5994 1.255703,-1.90825 2.370844,-1.90825 1.371981,0 1.810106,0.78284 1.810106,3.2343 0,1.89014 0.116513,2.28767 0.670518,2.28767 0.512904,0 0.561782,0.10874 0.207914,0.4626 -0.353862,0.35386 -0.702221,0.35344 -1.481916,-0.002 -0.703873,-0.32073 -1.248418,-0.34182 -1.759682,-0.0682 -0.960726,0.51416 -1.319999,0.49957 -1.896631,-0.077 z m 2.208784,-1.18326 c 0.748482,-0.74849 0.566986,-1.44947 -0.315545,-1.21869 -0.436597,0.11418 -0.78885,0.53802 -0.78885,0.94914 0,0.85169 0.419794,0.95414 1.104395,0.26955 z m 7.758584,1.2434 c -0.140444,-0.22726 -0.195292,-1.32122 -0.121879,-2.43103 0.174818,-2.64277 -0.592118,-2.94322 -1.636753,-0.6412 -0.426915,0.94078 -0.780112,2.02111 -0.784876,2.40075 -0.0055,0.4226 -0.312191,0.69024 -0.791466,0.69024 -0.722669,0 -0.763496,-0.18473 -0.531458,-2.40469 0.183633,-1.75698 0.114849,-2.48905 -0.255381,-2.71786 -0.366416,-0.22645 -0.260231,-0.3914 0.383497,-0.59571 0.923004,-0.29296 1.739501,0.40889 1.301028,1.11836 -0.125115,0.20244 0.337688,-0.0499 1.028455,-0.56047 1.849288,-1.36724 2.571192,-0.751 2.720632,2.32238 0.09998,2.05621 0.214311,2.3743 0.78885,2.19474 0.548858,-0.17154 0.531689,-0.0958 -0.09371,0.41383 -0.885394,0.72142 -1.642182,0.80086 -2.006945,0.21066 z m 3.631505,0.15457 c -0.147012,-0.147 -0.267295,-1.5689 -0.267295,-3.15975 0,-2.30812 0.119526,-2.89245 0.591642,-2.89245 0.465224,0 0.591638,0.54781 0.591638,2.56376 0,2.91012 0.328464,3.14004 1.972131,1.3805 0.607938,-0.65082 1.490202,-1.18328 1.960596,-1.18328 0.66033,0 0.826515,-0.20134 0.729209,-0.88343 -0.166372,-1.16611 -1.506532,-1.45857 -1.506532,-0.32877 0,0.90352 -0.29391,1.00518 -1.183273,0.40929 -0.504929,-0.3383 -0.455169,-0.51082 0.339514,-1.17723 1.044952,-0.87627 2.086755,-0.98772 3.277214,-0.35061 0.713754,0.38199 0.773981,0.6697 0.537066,2.56589 -0.246126,1.96994 -0.198496,2.16092 0.613958,2.46147 0.796882,0.29478 0.813106,0.35179 0.170279,0.59847 -0.401616,0.15412 -1.090439,0.0237 -1.584436,-0.29997 -0.768297,-0.50341 -0.946961,-0.4996 -1.478145,0.0315 -0.421107,0.42111 -0.886488,0.50849 -1.53565,0.28832 -1.032269,-0.3501 -0.996349,-0.35003 -2.143247,-0.003 -0.449561,0.13585 -0.937664,0.12671 -1.084669,-0.0203 z m 5.221401,-1.81212 c 0.184657,-0.48811 0.282884,-0.94622 0.218286,-1.01802 -0.280767,-0.3121 -1.762721,0.80413 -1.762721,1.3277 0,0.90924 1.172231,0.67417 1.544435,-0.30968 z m 5.775016,-0.53988 c 0.566232,-3.01314 0.4773,-6.5575 -0.169947,-6.77325 -0.777217,-0.25908 -0.479239,-0.77256 0.564057,-0.972 1.388394,-0.2654 1.870735,0.34917 3.143391,4.00506 0.605834,1.74035 1.231208,3.08411 1.389741,2.98613 0.158523,-0.098 0.76473,-1.37778 1.347135,-2.84401 1.372721,-3.45594 2.041428,-4.47045 2.763925,-4.1932 0.468854,0.17991 0.562601,1.06013 0.492245,4.62181 -0.08483,4.29241 -0.06527,4.40265 0.800545,4.52561 0.671966,0.0955 0.887457,-0.0697 0.887457,-0.68011 0,-0.81835 1.742001,-2.00968 2.938604,-2.00968 0.7387,0 0.811312,-1.31506 0.104958,-1.90128 -0.677736,-0.56246 -1.647017,0.0714 -1.338498,0.87541 0.171603,0.44719 0.01574,0.63145 -0.534166,0.63145 -1.095275,0 -0.995593,-1.32714 0.145553,-1.93787 0.507116,-0.27139 1.438944,-0.4345 2.070735,-0.36246 1.081613,0.12333 1.154726,0.24618 1.251777,2.1031 0.151179,2.89272 0.420342,3.74559 1.186327,3.75904 0.637808,0.0111 0.636789,0.0387 -0.01547,0.41848 -0.763546,0.44453 -2.259984,0.13586 -2.259984,-0.46614 0,-0.20733 -0.449822,-0.0822 -0.999608,0.27802 -0.750339,0.49165 -1.217527,0.55724 -1.87351,0.26304 -0.566424,-0.25402 -1.258495,-0.25851 -1.96684,-0.0127 -1.743421,0.6048 -2.210627,-0.11016 -2.342346,-3.58448 l -0.114581,-3.02174 -1.356982,3.26184 c -0.746346,1.79402 -1.540938,3.20053 -1.765767,3.12559 -0.224829,-0.075 -0.814661,-1.27006 -1.310728,-2.65582 -0.496077,-1.38578 -1.052415,-2.67005 -1.236314,-2.85394 -0.18389,-0.18389 -0.425475,0.9391 -0.536834,2.49555 -0.182943,2.55688 -0.58985,3.49913 -1.521468,3.52318 -0.128698,0.003 -0.0132,-1.16873 0.256584,-2.60457 z m 14.165154,0.53988 c 0.567961,-0.80673 0.56827,-0.89939 0.0036,-1.01864 -0.756648,-0.15972 -1.766759,0.61939 -1.766759,1.36275 0,0.84763 1.071547,0.6385 1.763336,-0.34411 z m 4.448877,1.64471 c -0.489768,-0.28526 -0.69025,-0.89973 -0.69025,-2.11563 0,-2.17972 1.648572,-4.1636 3.45991,-4.1636 1.161288,0 1.173594,-0.0235 1.443328,-2.76095 0.23948,-2.4303 0.368747,-2.76099 1.079228,-2.76099 0.518889,0 0.733569,0.19176 0.601129,0.53693 -0.11332,0.29531 -0.332965,2.76482 -0.488094,5.48778 l -0.282062,4.95085 0.938936,0.16098 c 0.92572,0.15871 0.92301,0.16763 -0.19371,0.63428 -1.336135,0.55836 -2.219982,0.0578 -2.219982,-1.25739 0,-0.7836 -0.03604,-0.77565 -0.667387,0.1469 -1.114306,1.62831 -1.735795,1.86615 -2.981046,1.14084 z m 2.562034,-1.84193 c 0.884397,-0.99492 1.526996,-3.54677 0.948509,-3.7667 -0.93584,-0.35579 -2.16267,0.4981 -2.594189,1.80561 -0.744578,2.25609 0.288814,3.48753 1.64568,1.96109 z m 5.163041,1.25292 c -0.83769,-0.8377 -0.97511,-1.26108 -0.78654,-2.42313 0.12568,-0.77443 0.6093,-1.81342 1.07475,-2.30886 0.73967,-0.78734 1.21357,-0.897 3.76267,-0.87059 2.68355,0.0278 2.91805,0.0964 2.93709,0.85877 0.0204,0.81819 0.0284,0.81746 0.63974,-0.0589 0.70486,-1.01045 2.49498,-1.22269 2.49498,-0.29582 0,0.32541 -0.34874,0.59165 -0.77499,0.59165 -0.89074,0 -1.61097,1.09616 -2.20162,3.35076 -0.24919,0.95116 -0.67917,1.62714 -1.08467,1.70522 -0.5817,0.11203 -0.67184,-0.24491 -0.67184,-2.66051 0,-2.95559 -0.30848,-3.38458 -1.32175,-1.83811 -0.34301,0.52348 -1.17413,1.0727 -1.84693,1.22046 -1.57419,0.34575 -1.89482,1.22247 -0.83477,2.28255 0.65705,0.65705 0.943,0.73555 1.31698,0.36157 0.26274,-0.26272 0.75281,-0.47178 1.08904,-0.46456 0.92307,0.0199 -1.06546,1.56457 -2.01402,1.56457 -0.4197,0 -1.21985,-0.45676 -1.77812,-1.01503 z m 1.86567,-3.33752 c 0.85922,-0.45984 1.03582,-1.56383 0.25017,-1.56383 -0.28201,0 -0.72573,0.21299 -0.98606,0.4733 -0.48347,0.48348 -0.65296,1.49883 -0.25017,1.49883 0.12274,0 0.56646,-0.18374 0.98606,-0.4083 z m 8.73031,3.87923 c -0.26031,-0.26032 -0.47329,-0.77991 -0.47329,-1.15463 0,-0.83155 1.80387,-2.3163 2.81416,-2.3163 0.87343,0 1.04834,-1.76775 0.20686,-2.09065 -0.79055,-0.30337 -1.59211,0.34518 -1.31598,1.06478 0.17162,0.44719 0.0157,0.63145 -0.53415,0.63145 -0.97179,0 -1.02424,-1.10545 -0.0862,-1.8175 0.9902,-0.75167 3.50527,-0.70218 3.80344,0.0749 0.13168,0.34313 0.23942,1.59114 0.23942,2.77335 0,1.61175 0.15881,2.2104 0.63482,2.39307 0.57791,0.22175 0.576,0.27651 -0.0211,0.61072 -0.44565,0.2494 -0.93931,0.18152 -1.53939,-0.21168 -0.75636,-0.49557 -0.99097,-0.5001 -1.63188,-0.0314 -0.91871,0.67177 -1.47904,0.69155 -2.09657,0.074 z m 2.61034,-1.69603 c 0.45563,-0.99999 0.24433,-1.17887 -0.88203,-0.74664 -0.75723,0.29058 -0.83678,1.73272 -0.0956,1.73272 0.29058,0 0.7305,-0.44373 0.97761,-0.98608 z m 6.51496,1.15432 c -0.84568,-0.84569 -0.97632,-1.257 -0.78292,-2.46518 0.12766,-0.79756 0.55597,-1.71634 0.95179,-2.04175 0.5522,-0.45393 0.658,-0.89185 0.4546,-1.88157 -0.32107,-1.56234 0.79517,-3.24597 2.15208,-3.24597 1.96013,0 2.44306,2.04301 0.83911,3.54984 -0.54234,0.50951 -0.98606,1.0387 -0.98606,1.176 0,0.5396 2.09379,2.73962 2.41714,2.53977 0.5778,-0.35709 0.38496,-1.30808 -0.43064,-2.12368 -0.96478,-0.96478 -0.6981,-1.10837 1.66072,-0.89408 1.70658,0.15503 2.33822,0.87969 0.76678,0.87969 -0.41299,0 -0.68717,0.33793 -0.72001,0.88746 -0.0292,0.4881 -0.17635,1.26132 -0.32702,1.71827 -0.22819,0.69201 -0.003,0.96454 1.34396,1.63128 1.5989,0.79107 1.60573,0.80353 0.58107,1.06072 -0.65634,0.16471 -1.37325,0.0398 -1.95348,-0.34037 -0.8105,-0.53107 -1.04544,-0.53342 -2.02898,-0.0204 -1.62169,0.84586 -2.78984,0.7183 -3.93814,-0.42999 z m 3.92825,-0.4161 c 0.13632,-0.13632 -0.39509,-1.03249 -1.18091,-1.99149 -1.04155,-1.27107 -1.51685,-1.60474 -1.75378,-1.23122 -0.48192,0.75975 -0.40483,2.45621 0.13622,2.99726 0.49763,0.49763 2.37506,0.64887 2.79847,0.22545 z m -0.92096,-6.24122 c 0.6139,-0.73971 0.37251,-1.99109 -0.3841,-1.99109 -0.37309,0 -0.63117,0.46607 -0.70984,1.28189 -0.13139,1.36289 0.31256,1.6507 1.09394,0.7092 z m 7.90425,7.2902 c 0,-0.49513 1.99621,-5.00273 3.58208,-8.08861 1.6764,-3.26204 2.15039,-2.71994 3.57193,4.08522 0.38895,1.86199 0.76946,2.67658 1.46242,3.13062 l 0.93667,0.61373 -0.89021,0.32931 c -1.16882,0.43237 -2.08647,-0.4016 -2.70182,-2.45545 -0.43187,-1.4415 -0.58437,-1.57134 -1.84521,-1.57134 -1.14467,0 -1.43767,0.18129 -1.75282,1.08466 -0.60973,1.74776 -1.34063,2.98152 -1.87001,3.15666 -0.27117,0.0897 -0.49303,-0.0384 -0.49303,-0.2848 z m 5.05448,-6.22447 c -0.54474,-1.99491 -0.61466,-2.01473 -1.30227,-0.36905 -0.77935,1.86524 -0.78448,1.84813 0.55467,1.84813 1.13946,0 1.14726,-0.0155 0.7476,-1.47908 z m 11.27108,5.61015 c -0.47963,-0.732 -0.58873,-1.46479 -0.41106,-2.76098 l 0.24185,-1.76451 h -1.38695 c -1.27187,0 -1.45128,0.15001 -2.16181,1.80761 -0.42616,0.9942 -0.77483,2.14789 -0.77483,2.56378 0,0.41588 -0.26624,0.75615 -0.59164,0.75615 -0.46956,0 -0.59164,-0.56973 -0.59164,-2.76099 0,-2.23769 -0.11654,-2.76097 -0.61491,-2.76097 -0.33821,0 -0.50522,-0.17749 -0.37116,-0.39443 0.13408,-0.21693 0.67704,-0.39444 1.20656,-0.39444 0.72556,0 0.96279,0.21133 0.96279,0.85761 v 0.85761 l 0.95378,-0.89603 c 0.73425,-0.68979 1.22178,-0.83718 2.1181,-0.64031 0.98891,0.21721 1.20091,0.11903 1.40737,-0.65181 0.1337,-0.49915 0.24551,-1.3069 0.24847,-1.795 0.003,-0.60323 0.2425,-0.88745 0.74579,-0.88745 0.6442,0 0.7144,0.2306 0.54035,1.7749 -0.1864,1.65358 -0.13589,1.77805 0.73868,1.82067 0.81322,0.0397 0.83327,0.0721 0.1499,0.24285 -1.04506,0.2611 -1.36717,0.82347 -1.37444,2.3997 -0.008,1.88056 0.58646,2.80134 1.6651,2.57615 0.85231,-0.17794 0.84809,-0.15914 -0.0935,0.41603 -1.38091,0.84358 -1.85814,0.77655 -2.60686,-0.36614 z m 4.31693,-0.0185 c -0.83767,-0.83771 -0.97512,-1.26108 -0.78653,-2.42313 0.31632,-1.94921 1.64708,-3.26709 3.29906,-3.26709 2.50562,0 2.18357,2.26987 -0.41559,2.92916 -0.94998,0.24096 -1.44046,0.59387 -1.44046,1.03639 0,1.01002 1.03683,1.67869 2.16422,1.39573 1.17206,-0.29415 1.32844,0.34687 0.22826,0.93566 -1.19566,0.6399 -1.95303,0.48917 -3.04896,-0.60672 z m 1.86569,-3.33753 c 0.80167,-0.42905 1.01589,-1.36092 0.40028,-1.74139 -0.46252,-0.28586 -1.60949,0.84452 -1.60949,1.58622 0,0.67111 0.19777,0.69648 1.20921,0.15517 z m -127.42539,1.42725 c 0,-1.67387 -0.16695,-2.58672 -0.493034,-2.69572 -0.271164,-0.0907 0.0092,-0.26099 0.622727,-0.37854 0.754129,-0.14445 1.185398,-0.0323 1.330613,0.34619 0.179436,0.46758 0.334483,0.45165 0.940292,-0.0966 0.398981,-0.36109 0.998272,-0.55182 1.331755,-0.42385 0.867003,0.33271 0.749428,1.04627 -0.172396,1.04627 -0.849176,0 -1.718863,1.38747 -2.163305,3.45124 -0.153993,0.71508 -0.523799,1.28188 -0.836355,1.28188 -0.425901,0 -0.560297,-0.60707 -0.560297,-2.53089 z m 37.563494,-5.35761 c 0.863922,-1.61852 1.484637,-2.03205 1.484637,-0.98907 0,0.6338 -1.523749,2.56676 -2.023361,2.56676 -0.166874,0 0.07555,-0.70996 0.538724,-1.57769 z m 16.601594,-20.0171 c 0.138318,-2.98285 0.367825,-7.28935 0.510002,-9.57 l 0.258506,-4.14663 -9.421826,-5.67508 c -5.182008,-3.12129 -9.599326,-5.83921 -9.816259,-6.03981 -0.216931,-0.2006 0.493033,-0.0133 1.577703,0.41619 1.084672,0.4295 4.01328,1.58698 6.508023,2.57215 2.494744,0.98518 6.044566,2.40837 7.888506,3.16263 1.84394,0.75427 3.464817,1.2521 3.601932,1.10628 0.137118,-0.14581 0.555811,-3.90371 0.930434,-8.35085 0.374607,-4.44716 0.802902,-9.41692 0.951752,-11.04392 l 0.270646,-2.95819 0.287958,1.97213 c 0.301301,2.06354 1.838015,18.42555 1.842948,19.62267 0.0019,0.37963 0.270064,0.69025 0.596677,0.69025 0.326603,0 4.796652,-1.68299 9.933441,-3.73997 5.136799,-2.057 9.386719,-3.69288 9.444289,-3.63531 0.0577,0.0577 -1.97198,1.35858 -4.51009,2.89115 -2.53813,1.53256 -6.877784,4.16224 -9.643692,5.84373 l -5.028928,3.05725 v 1.83262 c 0,1.00795 0.199646,5.18163 0.443652,9.27483 0.371903,6.23879 0.355956,7.49773 -0.09861,7.78567 -0.298234,0.18892 -1.945424,0.3462 -3.660402,0.34952 l -3.118154,0.006 z m -30.598163,-16.09378 c -1.030436,-0.32703 -1.873517,-0.74717 -1.873517,-0.93368 0,-0.58566 3.352558,-4.92286 4.647561,-6.01255 0.680717,-0.57278 2.049232,-1.35135 3.041139,-1.73017 2.053071,-0.78408 3.987324,-0.44293 5.865576,1.03451 1.964701,1.54541 1.062953,5.07369 -1.848375,7.23212 -1.449294,1.07451 -7.007847,1.30616 -9.832384,0.40977 z m 59.815075,-0.13898 c -2.02371,-0.91906 -3.3617,-2.75971 -3.61048,-4.96685 -0.18282,-1.62198 -0.12002,-1.74911 1.33439,-2.70094 3.12306,-2.0439 5.58475,-1.7142 8.80262,1.17893 2.35224,2.11488 4.51323,5.08677 4.23189,5.81992 -0.24774,0.64562 -4.06938,1.42312 -6.93954,1.41183 -1.28823,-0.004 -2.87314,-0.31338 -3.81888,-0.74289 z m -65.921346,-5.17182 c -0.917937,-0.13272 -1.756025,-0.32836 -1.862407,-0.43475 -0.331141,-0.33114 2.45699,-4.17475 3.638735,-5.01623 1.771752,-1.26159 4.196083,-1.29831 5.500266,-0.0833 0.67689,0.63061 0.770925,1.01391 0.52083,2.12282 -0.404918,1.79534 -0.643735,2.13216 -2.014256,2.84089 -1.359148,0.70284 -3.444902,0.9086 -5.783168,0.57054 z m 76.215416,-0.36588 c -1.36906,-0.56035 -2.27292,-1.90931 -2.32074,-3.46357 -0.0418,-1.35373 0.092,-1.55563 1.47869,-2.23274 1.49622,-0.73059 1.55842,-0.73038 3.35262,0.0123 1.39941,0.57922 2.19553,1.29058 3.3949,3.03351 1.3009,1.89048 1.46822,2.33915 0.98606,2.6441 -0.70908,0.44842 -5.80004,0.45319 -6.89153,0.006 z m -55.877525,-5.03413 c -1.421565,-0.88195 -2.694674,-3.25592 -2.694674,-5.0248 0,-0.79739 0.451772,-2.40478 1.003928,-3.57194 1.000638,-2.11518 4.250493,-6.11196 4.969732,-6.11196 0.620212,0 2.70219,4.85615 3.150534,7.34852 0.567806,3.15648 -0.07646,5.00185 -2.351012,6.73409 -1.920917,1.46292 -2.569256,1.56243 -4.078508,0.62609 z m 37.339525,0.0184 c -4.117004,-2.17043 -4.672172,-6.09279 -1.73378,-12.24963 0.65035,-1.36267 1.3842,-2.47759 1.63079,-2.47759 0.75619,0 3.38581,3.22321 4.63689,5.68358 1.87175,3.68096 1.49612,6.39955 -1.19738,8.66598 -1.41599,1.19148 -1.7262,1.22659 -3.33652,0.37766 z m -51.949318,-2.86189 c -1.454984,-0.92271 -2.097445,-1.72375 -3.242529,-4.04286 -0.785423,-1.59067 -1.539981,-3.58507 -1.676806,-4.432 l -0.248778,-1.53985 2.723843,0.26952 c 6.406655,0.63392 9.744325,2.74979 10.042601,6.36635 0.21571,2.61545 0.0055,3.31188 -1.185577,3.92781 -1.891072,0.9779 -4.335029,0.76869 -6.412754,-0.54897 z m 63.289058,0.4623 c -1.22052,-0.60744 -1.28189,-0.74503 -1.28189,-2.87464 0,-2.79301 1.04676,-4.49726 3.54983,-5.77963 2.04068,-1.04548 5.67512,-1.80234 7.80553,-1.62548 1.70702,0.14169 1.72496,0.39121 0.28644,3.98487 -1.23776,3.09216 -2.4331,4.74615 -4.30916,5.96262 -1.83318,1.18864 -4.0819,1.31213 -6.05075,0.33226 z M 6.966163,-393.5336 c -1.8235609,-2.67042 -3.5487205,-4.99724 -3.8336921,-5.17072 -0.2849782,-0.17348 -0.5181345,-0.49166 -0.5181345,-0.70708 0,-0.2154 -1.95240868,-3.32893 -4.3386832,-6.91893 -2.386273,-3.59001 -4.3386818,-6.74335 -4.3386818,-7.00744 0,-0.26408 0.2536539,-0.82471 0.5636762,-1.24579 0.5532221,-0.75142 0.6209328,-0.74464 3.6484372,0.36546 9.8377187,3.60722 16.9607552,5.87049 19.0808472,6.06274 2.076729,0.18829 2.487799,0.10606 3.303918,-0.66058 l 0.932084,-0.87567 -2.336663,-5.19535 c -1.285165,-2.85744 -2.630207,-5.41584 -2.988982,-5.68533 -0.533712,-0.40088 -0.890401,-0.3495 -1.961608,0.28252 -1.665407,0.98262 -1.677661,0.51366 -0.02739,-1.04832 1.493998,-1.41408 2.929323,-2.22218 3.414467,-1.92234 0.187759,0.11604 1.095657,1.94353 2.017561,4.06111 0.921905,2.11757 1.758323,3.93886 1.858724,4.04734 0.100393,0.10846 0.05571,-0.99989 -0.09929,-2.46299 -0.596398,-5.62951 0.765788,-9.36979 3.412437,-9.36979 1.581168,0 2.883717,1.39384 4.437642,4.74866 l 1.274574,2.75173 -0.168986,-3.5345 c -0.21023,-4.3971 0.07642,-5.98223 1.356979,-7.5041 2.244748,-2.66772 4.432574,-1.08516 7.065471,5.11081 0.933788,2.19748 1.981746,4.42878 2.328801,4.95844 1.145812,1.74873 3.746383,0.95623 3.45166,-1.05186 -0.237448,-1.61782 0.147284,-2.73463 1.44389,-4.19146 1.050436,-1.18023 4.764217,-3.24708 5.850458,-3.25599 0.775767,-0.006 0.881772,-0.54839 0.467723,-2.39164 -0.561789,-2.50093 -1.65896,-3.5286 -3.767207,-3.5286 -1.180267,0 -1.949315,0.24316 -2.495016,0.78885 -0.938781,0.9388 -0.985901,1.63027 -0.212944,3.12499 0.316748,0.61252 0.464661,1.22493 0.328688,1.36091 -0.546465,0.54645 -2.083843,0.20288 -2.490272,-0.55655 -1.749546,-3.26905 6.233785,-8.27984 9.083224,-5.70113 1.257448,1.13798 1.520755,1.78809 2.188732,5.40397 1.386603,7.50597 2.167329,8.70505 4.915515,7.54953 l 1.343384,-0.56485 -0.921264,0.98065 c -2.09698,2.23213 -4.858508,1.9137 -6.100416,-0.70341 -0.372664,-0.78535 -0.744222,-1.42789 -0.825691,-1.42789 -0.08148,0 -0.367402,0.66559 -0.635411,1.47909 -0.637014,1.93353 -1.876903,3.5899 -3.202734,4.27853 -1.454816,0.75561 -2.395572,0.69478 -3.572522,-0.231 l -0.996944,-0.78419 -0.65325,0.99699 c -0.359291,0.54834 -1.284625,1.29807 -2.056296,1.66606 l -1.40303,0.66905 -0.941217,-1.17767 c -0.517668,-0.64774 -1.689712,-2.9526 -2.60454,-5.12194 -2.200462,-5.21797 -2.538926,-5.71918 -3.862141,-5.71918 -1.190247,0 -1.697923,0.86188 -2.164906,3.67534 -0.300853,1.81256 0.382367,6.63276 1.360304,9.59711 l 0.710052,2.15228 -0.952341,0.62401 c -0.523791,0.3432 -1.033224,0.54311 -1.132078,0.44426 -0.09885,-0.0988 -1.169247,-2.47464 -2.378651,-5.27955 -2.120136,-4.91713 -3.352305,-6.87476 -4.327069,-6.87476 -0.253964,0 -0.799869,0.37419 -1.213125,0.83153 -1.140061,1.26169 -1.034306,7.78338 0.190851,11.7697 0.866686,2.81994 0.874264,2.95875 0.188876,3.45993 -0.392722,0.28716 -0.931916,0.4385 -1.198199,0.33633 -0.266289,-0.10213 -0.592484,0.15551 -0.72488,0.57265 -0.132396,0.41714 -0.715574,1.13195 -1.29596,1.58848 -1.266636,0.99634 -2.786411,0.86455 -8.072168,-0.69993 -1.900169,-0.56244 -3.5190841,-0.95027 -3.5975781,-0.86189 -0.5160406,0.58108 -3.4475046,6.12969 -3.636691,6.88348 -0.1858446,0.74045 0.4034411,1.70914 2.9606078,4.86681 3.2228593,3.97968 3.6064063,4.8513 2.6876503,6.10778 -0.449698,0.61499 -0.8680212,0.15897 -3.8205488,-4.1647 z m -1.2950284,-10.77537 c 0.9219666,-1.61508 1.6763075,-3.09653 1.6763075,-3.29209 0,-0.3914 -0.2503874,-0.49999 -6.47181187,-2.80689 -2.36635393,-0.87742 -4.39298263,-1.50481 -4.50361323,-1.39417 -0.1106369,0.11063 0.014845,0.60025 0.2787723,1.08803 0.801981,1.48197 6.7520622,9.36789 7.058047,9.35434 0.1572974,-0.007 1.0403253,-1.3341 1.9622983,-2.94922 z m 45.0270214,-17.30074 c 1.597827,-1.2792 2.734652,-6.55835 1.412286,-6.55835 -0.32776,0 -1.400043,0.37798 -2.382844,0.83995 -2.773889,1.30387 -3.819387,4.19463 -2.128576,5.88547 0.83166,0.83164 1.92529,0.7727 3.099134,-0.16707 z m 24.809131,31.34323 c -0.994355,-0.63061 -2.372885,-1.96771 -3.063405,-2.97134 -1.512153,-2.19783 -2.939409,-5.3176 -2.591776,-5.66524 0.13824,-0.13822 1.464617,-0.31989 2.947508,-0.40367 6.654713,-0.37603 10.671964,2.16185 10.671964,6.74196 0,1.58971 -0.117658,1.788 -1.532801,2.58334 -2.151767,1.20937 -4.219543,1.11772 -6.43149,-0.28505 z m 13.787972,0.33387 c -1.744696,-0.92116 -2.110491,-1.99197 -1.480138,-4.33291 0.584454,-2.17051 2.282448,-3.75497 4.837009,-4.51359 2.012775,-0.59774 6.431915,-0.74078 8.05588,-0.26076 l 0.86777,0.25652 -1.15416,2.39891 c -1.412208,2.93527 -4.048053,6.00432 -5.777293,6.72686 -1.772065,0.74041 -3.604226,0.64621 -5.349068,-0.27503 z m -29.744379,-1.52482 c -1.468922,-0.89569 -2.295083,-3.00727 -1.902338,-4.86213 0.365979,-1.72842 1.786814,-5.02756 2.165211,-5.02756 0.167744,0 0.852536,0.62361 1.521755,1.3858 3.135763,3.57146 3.414835,6.78269 0.751577,8.64809 -1.093475,0.7659 -1.038505,0.76905 -2.536205,-0.1442 z m 50.64301,0.33378 c -0.91328,-0.53194 -1.8735,-2.4362 -1.8735,-3.71545 0,-0.56388 0.29057,-1.59327 0.64568,-2.28754 0.83887,-1.63996 2.87107,-4.22048 3.32371,-4.22048 0.65448,0 2.01267,3.23954 2.2264,5.31038 0.24967,2.41914 -0.21619,3.49387 -1.98089,4.56989 -1.4436,0.88022 -1.42425,0.87739 -2.3414,0.3432 z m 59.66867,-2.77379 c -0.53585,-0.21387 -1.55643,-0.83286 -2.26795,-1.37557 -2.51411,-1.91761 -1.53664,-3.36818 4.85813,-7.20941 3.6248,-2.17738 4.78718,-3.50318 4.13679,-4.71844 -1.23812,-2.31345 -7.01763,-1.87886 -13.43907,1.01057 -2.17401,0.97823 -3.35754,0.88023 -3.35754,-0.27802 0,-0.27461 2.57362,-2.20768 5.71917,-4.29568 6.20044,-4.11586 6.91197,-5.01416 5.07134,-6.40254 -0.50495,-0.38089 -0.81036,-0.80022 -0.67872,-0.93188 0.29804,-0.29804 3.46396,2.09973 4.05021,3.06749 0.52813,0.87183 -0.62214,1.97703 -4.72766,4.54239 -2.1073,1.31677 -2.45949,1.65547 -1.54582,1.48657 7.17017,-1.32548 8.84938,-1.26215 10.83507,0.40872 2.53629,2.13415 1.33683,4.35404 -4.12985,7.64339 -5.71253,3.43726 -6.27795,4.28379 -4.26488,6.38499 1.16232,1.21321 1.15509,1.23185 -0.25922,0.66742 z m -85.88443,-6.69765 c -2.598795,-1.66451 -3.549836,-4.91145 -2.426964,-8.28587 0.534794,-1.60717 3.554732,-6.66549 3.97944,-6.66549 0.577345,0 3.064499,3.76628 3.851683,5.83259 1.535567,4.03072 0.770081,7.43131 -2.061461,9.15772 -1.590339,0.96964 -1.771289,0.96753 -3.342698,-0.0389 z m -8.789492,-1.01495 c -2.030218,-0.78898 -3.94426,-4.3328 -3.94426,-7.30276 0,-1.42133 1.00318,-1.46791 3.747045,-0.17397 2.894553,1.36501 3.952865,2.67419 3.906001,4.83194 -0.02103,0.96882 -0.204086,1.92732 -0.406753,2.13001 -0.484244,0.48422 -2.551374,0.8065 -3.302033,0.51478 z m 18.048955,-0.008 c -0.875078,-0.22903 -1.448482,-2.34698 -1.035868,-3.82609 0.591917,-2.12184 2.920557,-3.81986 6.04144,-4.40533 l 1.521644,-0.28545 -0.224409,2.17431 c -0.478797,4.63907 -3.024319,7.20063 -6.302807,6.34256 z m 58.595367,-8.80493 c -2.05012,-1.04443 -2.86435,-2.25379 -3.15186,-4.68146 -0.40914,-3.45447 2.28298,-7.53088 6.23783,-9.4454 4.69514,-2.27287 9.81317,0.37091 9.79418,5.05934 -0.025,6.17954 -7.8021,11.65454 -12.88015,9.06752 z m 5.43648,-1.29139 c 2.01201,-1.35298 4.34627,-4.97455 4.58787,-7.11803 0.2565,-2.27573 -0.0725,-3.58059 -1.15748,-4.59146 -3.08793,-2.87685 -9.35261,2.73493 -9.37839,8.40098 -0.007,1.58468 0.18462,2.09715 1.14426,3.05679 1.41618,1.41618 2.95237,1.49667 4.80374,0.25172 z m -17.61177,-4.38668 c -5.41066,-2.35673 -4.55682,-10.22114 1.55634,-14.33477 1.57524,-1.06 2.28053,-1.28188 4.07465,-1.28188 3.67095,0 6.39163,2.14542 5.78512,4.56194 -0.25855,1.03011 -1.64858,1.62264 -2.78427,1.18683 -0.50187,-0.19258 -0.54899,-0.36217 -0.19811,-0.71306 0.82445,-0.82444 0.5323,-2.55535 -0.57886,-3.42937 -2.124,-1.67073 -4.91195,-0.52661 -7.01816,2.88014 -2.09807,3.39353 -1.79213,8.45223 0.58821,9.72616 0.92121,0.49301 3.39403,0.601 4.64809,0.20298 1.51892,-0.48209 0.89423,0.46879 -0.7367,1.12137 -1.90375,0.76172 -3.70856,0.78867 -5.33631,0.0796 z m -7.95971,-2.90712 c -1.29117,-0.20656 -2.47302,-1.92936 -2.47302,-3.60497 0,-0.79121 0.25169,-2.40883 0.5593,-3.59471 0.30762,-1.18589 0.4993,-2.21618 0.42595,-2.28952 -0.0734,-0.0734 -0.45009,0.37014 -0.83721,0.98554 -3.53188,5.61465 -7.56403,7.74374 -9.8602,5.20649 -1.07121,-1.18367 -0.89499,-3.0875 0.81268,-8.77965 1.68012,-5.60026 1.62814,-6.26293 -0.5079,-6.47547 -0.68316,-0.068 -1.24211,-0.29795 -1.24211,-0.51105 0,-0.67923 5.1862,-0.24368 5.63643,0.47333 0.28692,0.45695 -0.0649,2.13442 -1.29386,6.1708 -1.84138,6.04738 -1.87668,7.41011 -0.20283,7.83022 2.32133,0.58261 6.22932,-3.67629 8.52457,-9.29003 1.23548,-3.02172 1.37196,-3.19664 2.31066,-2.96103 0.54871,0.13772 1.06062,0.31336 1.13761,0.39034 0.0769,0.0769 -0.22479,1.26062 -0.67058,2.63032 -2.83762,8.71858 -2.72888,12.94263 0.33321,12.94263 0.50718,0 0.82791,0.0942 0.71275,0.2094 -0.39363,0.39363 -2.48465,0.80828 -3.36545,0.66737 z m -69.130164,-3.93355 c 0.0025,-2.0851 -1.322724,-13.02779 -1.652326,-13.6452 -0.308574,-0.57805 -0.66553,-0.6758 -1.735029,-0.47517 -1.965696,0.36878 -1.650673,-0.0819 0.860958,-1.23181 2.739062,-1.25399 3.192007,-0.93884 3.499315,2.43474 0.118564,1.3016 0.32483,3.34275 0.458362,4.5359 l 0.242791,2.16934 0.696096,-3.35263 c 0.813455,-3.91782 2.116073,-6.55771 3.619455,-7.33513 1.432735,-0.7409 2.039629,-0.69774 2.854841,0.20308 0.610951,0.67508 0.816871,0.70079 1.914769,0.23916 1.503169,-0.63202 1.7918,-1.30801 1.856613,-4.34823 0.02777,-1.30161 0.175443,-3.07651 0.328215,-3.94425 0.237407,-1.34847 0.436524,-1.59602 1.370399,-1.70374 l 1.092653,-0.12601 -0.272594,4.82341 -0.272595,4.82342 2.6265,-0.24526 c 2.481784,-0.23175 3.269021,0.0568 2.133472,0.78229 -0.271166,0.17322 -1.469243,0.40555 -2.662378,0.51632 l -2.169342,0.20136 0.08946,4.82248 c 0.134768,7.26482 1.240137,9.08388 4.779068,7.86461 1.144797,-0.39441 1.631271,-0.43526 1.528977,-0.12838 -0.209829,0.62947 -2.429886,1.87114 -3.964324,2.21722 -3.365535,0.75905 -4.504352,-1.44684 -4.867416,-9.42828 l -0.252699,-5.55486 -1.510185,0.10358 c -1.083009,0.0742 -1.483978,0.27058 -1.417515,0.69386 0.06858,0.43671 -0.357999,0.61583 -1.639928,0.68868 -2.027133,0.11513 -2.498893,0.43834 -3.394424,2.32553 -0.782011,1.64796 -1.771788,7.37087 -1.773918,10.25684 -0.0014,1.48493 -0.168695,2.0927 -0.625399,2.26795 -1.102369,0.42302 -1.742676,0.2573 -1.741882,-0.45083 z m 24.476743,-2.68839 c -1.934683,-1.74788 -2.545613,-3.51845 -2.294299,-6.64928 0.405296,-5.04912 3.89425,-8.97338 8.059795,-9.06535 3.058126,-0.0676 5.286866,2.59699 3.918751,4.68498 -1.225227,1.86995 -3.275438,2.75311 -8.274456,3.56433 l -1.525264,0.24754 0.254664,1.59256 c 0.74245,4.64302 4.204235,6.51736 7.952531,4.30582 1.699861,-1.00295 1.937842,-0.94734 0.983442,0.22977 -1.295274,1.59753 -3.251318,2.49309 -5.448729,2.49465 -1.819557,9.2e-4 -2.257684,-0.16844 -3.626435,-1.40502 z m 5.477773,-9.4293 c 2.245578,-1.16124 2.435312,-3.6995 0.356895,-4.77431 -1.023217,-0.52912 -1.282049,-0.52367 -2.4962,0.0526 -1.467424,0.69633 -2.967175,3.21031 -2.967175,4.97376 0,0.97581 0.04652,0.9925 1.934137,0.69411 1.063774,-0.16816 2.491331,-0.59389 3.172343,-0.94605 z m 8.316898,9.94834 c 0.007,-0.48809 0.18005,-2.1299 0.38436,-3.64843 0.48962,-3.63916 1.87846,-15.27874 2.1038,-17.63144 0.21605,-2.25573 -0.27626,-2.99241 -2.10664,-3.15243 -0.75927,-0.0663 -1.336783,-0.29817 -1.283366,-0.51512 0.114816,-0.46623 8.425436,-0.75129 11.419916,-0.3917 3.82329,0.45914 6.23458,2.89416 6.16056,6.22116 -0.11374,5.11156 -3.67809,8.53847 -8.90163,8.55841 -1.25479,0.004 -2.26795,-0.16753 -2.26795,-0.38576 0,-0.21692 0.4881,-0.39541 1.08468,-0.39661 3.58726,-0.007 6.14907,-2.10788 6.89236,-5.65157 0.39059,-1.86216 0.37257,-2.53582 -0.10379,-3.88438 -0.8438,-2.38862 -2.25875,-3.27441 -5.23599,-3.27787 l -2.44002,-0.003 -0.86077,6.90244 c -0.47342,3.79634 -0.97365,7.87865 -1.11163,9.07179 -0.13799,1.19313 -0.41074,3.41178 -0.60615,4.93031 -0.19541,1.51854 -0.36076,3.07159 -0.36746,3.45124 -0.009,0.52358 -0.3455,0.69024 -1.39266,0.69024 -1.1725,0 -1.37856,-0.13372 -1.36759,-0.88747 z"
       id="path5233" />
  </g>
</svg>
