<?xml version="1.0" encoding="UTF-8" standalone="no"?>
<svg
   viewBox="0 0 500 500"
   version="1.1"
   id="svg31"
   sodipodi:docname="brave-logo_.svg"
   width="500"
   height="500"
   inkscape:version="1.1.1 (3bf5ae0d25, 2021-09-20)"
   inkscape:export-filename="C:\Users\suitedoalex\sites\brave-logo-0.png"
   inkscape:export-xdpi="561.73712"
   inkscape:export-ydpi="561.73712"
   xmlns:inkscape="http://www.inkscape.org/namespaces/inkscape"
   xmlns:sodipodi="http://sodipodi.sourceforge.net/DTD/sodipodi-0.dtd"
   xmlns="http://www.w3.org/2000/svg"
   xmlns:svg="http://www.w3.org/2000/svg"
   xmlns:rdf="http://www.w3.org/1999/02/22-rdf-syntax-ns#"
   xmlns:cc="http://creativecommons.org/ns#"
   xmlns:dc="http://purl.org/dc/elements/1.1/">
  <metadata
     id="metadata35">
    <rdf:RDF>
      <cc:Work
         rdf:about="">
        <dc:format>image/svg+xml</dc:format>
        <dc:type
           rdf:resource="http://purl.org/dc/dcmitype/StillImage" />
      </cc:Work>
    </rdf:RDF>
  </metadata>
  <sodipodi:namedview
     pagecolor="#ffffff"
     bordercolor="#666666"
     borderopacity="1"
     objecttolerance="10"
     gridtolerance="10"
     guidetolerance="10"
     inkscape:pageopacity="0"
     inkscape:pageshadow="2"
     inkscape:window-width="1920"
     inkscape:window-height="991"
     id="namedview33"
     showgrid="false"
     inkscape:zoom="1.0425714"
     inkscape:cx="-77.212938"
     inkscape:cy="174.0888"
     inkscape:window-x="1911"
     inkscape:window-y="-9"
     inkscape:window-maximized="1"
     inkscape:current-layer="g29"
     inkscape:pagecheckerboard="0"
     width="500px" />
  <defs
     id="defs17">
    <linearGradient
       x1="0.0010835459"
       y1="61.705673"
       x2="121.69413"
       y2="61.705673"
       id="a"
       gradientTransform="scale(0.92289582,1.0835459)"
       gradientUnits="userSpaceOnUse">
      <stop
         stop-color="#F50"
         offset="0%"
         id="stop2" />
      <stop
         stop-color="#F50"
         offset="40.988%"
         id="stop4" />
      <stop
         stop-color="#FF2000"
         offset="58.198%"
         id="stop6" />
      <stop
         stop-color="#FF2000"
         offset="100%"
         id="stop8" />
    </linearGradient>
    <linearGradient
       x1="5.8308024"
       y1="23.863535"
       x2="51.882446"
       y2="23.863535"
       id="b"
       gradientTransform="scale(1.980747,0.50486004)"
       gradientUnits="userSpaceOnUse">
      <stop
         stop-color="#FF452A"
         offset="0%"
         id="stop11" />
      <stop
         stop-color="#FF2000"
         offset="100%"
         id="stop13" />
    </linearGradient>
    <path
       d="M 87.884,13.077 76.372,0 H 35.94 L 24.428,13.077 c 0,0 -10.108,-2.811 -14.881,1.968 0,0 13.477,-1.218 18.11,6.325 0,0 12.495,2.39 14.18,2.39 1.684,0 5.334,-1.406 8.704,-2.53 3.369,-1.125 5.615,-1.133 5.615,-1.133 0,0 2.246,0.008 5.616,1.133 3.37,1.124 7.02,2.53 8.704,2.53 1.685,0 14.18,-2.39 14.18,-2.39 4.632,-7.543 18.11,-6.325 18.11,-6.325 -4.773,-4.78 -14.882,-1.968 -14.882,-1.968"
       id="c"
       inkscape:connector-curvature="0" />
    <pattern
       id="EMFhbasepattern"
       patternUnits="userSpaceOnUse"
       width="6"
       height="6"
       x="0"
       y="0" />
  </defs>
  <g
     id="g29"
     style="fill:none;fill-rule:evenodd"
     transform="matrix(1.5747902,0,0,1.5747902,16.630237,763.27292)">
    <path
       style="fill:#ec5242;stroke-width:1;fill-opacity:1"
       d="m 131.99131,-221.98365 c -4.3212,-1.96225 -50.840951,-33.61317 -56.099641,-38.16885 -5.67206,-4.91378 -9.4976,-11.12054 -12.34886,-20.03544 -0.71485,-2.23509 -6.12109,-22.46523 -12.01386,-44.95587 -5.89277,-22.49063 -11.35351,-43.29224 -12.13498,-46.22581 l -1.42085,-5.33374 3.45488,-9.85711 3.45488,-9.8571 -2.71824,-6.62961 -2.71824,-6.62959 8.13936,-8.5227 c 8.8111,-9.22605 10.71028,-10.57405 16.40265,-11.64227 3.29406,-0.61816 12.09196,-0.31502 14.87224,0.51244 l 1.66487,0.49549 6.20876,-6.99194 c 3.41481,-3.84557 7.92318,-8.96675 10.01858,-11.38039 l 3.809821,-4.38845 35.64858,-0.0176 35.64858,-0.0176 9.95617,11.3332 9.95616,11.33321 3.92291,-0.70007 c 4.90978,-0.87618 12.59343,-0.55421 16.36831,0.6859 2.41941,0.79481 3.73668,1.84036 9.82826,7.8009 3.86892,3.7857 7.94108,7.96102 9.04925,9.2785 l 2.01486,2.39542 -2.65439,6.56942 -2.65437,6.56943 3.43619,9.82205 3.4362,9.82204 -1.54256,5.84995 c -0.84841,3.21747 -6.47281,24.63868 -12.49867,47.60269 -6.02585,22.96401 -11.55207,43.42274 -12.28048,45.46384 -3.68017,10.31234 -8.83111,16.29477 -21.78708,25.30404 -15.81686,10.99868 -43.02021,29.04223 -45.58755,30.23748 -3.18763,1.48405 -5.98231,1.57207 -8.83174,0.27815 z m 6.42954,-46.61192 c 0.69078,-0.46918 2.51321,-1.91811 4.04984,-3.21984 1.53663,-1.30173 7.59424,-6.07599 13.46136,-10.60945 5.86712,-4.53347 10.97013,-8.66843 11.34001,-9.18881 0.47557,-0.66906 0.52459,-1.22255 0.16741,-1.88995 -0.66252,-1.23794 -18.21791,-10.18684 -24.70124,-12.59153 -2.78642,-1.03349 -5.75807,-1.87509 -6.60369,-1.87023 -2.35572,0.0136 -10.27465,3.23064 -19.82461,8.05383 -10.35922,5.23191 -11.53847,6.00685 -11.33063,7.44587 0.0977,0.67642 2.41287,2.83405 6.25087,5.82549 3.35264,2.61313 9.15559,7.1912 12.89544,10.17348 11.84213,9.44331 11.91852,9.48538 14.29524,7.87114 z m -27.19068,-38.7188 c 7.5897,-3.74223 11.69302,-6.57354 17.07672,-11.783 3.53442,-3.42003 5.52313,-6.19683 5.52631,-7.71631 0.003,-1.57804 -4.39238,-5.26259 -12.06292,-10.11137 -4.08293,-2.58095 -8.75337,-5.67162 -10.37875,-6.86815 -2.79982,-2.06111 -2.95523,-2.28948 -2.95523,-4.34245 0,-1.74409 0.75969,-3.55331 3.89314,-9.27161 6.41763,-11.7117 7.06252,-14.47361 4.15321,-17.78712 -2.12964,-2.42553 -4.05925,-3.34034 -18.713841,-8.87204 -6.84498,-2.5838 -12.90259,-4.93838 -13.46136,-5.23242 -0.96591,-0.50828 -0.94941,-0.55251 0.33508,-0.89803 2.693,-0.72439 15.658171,-1.61578 20.053451,-1.37872 4.50982,0.24324 15.76625,3.05102 19.06002,4.7543 2.7922,1.4439 2.78729,1.78615 -0.25859,18.03177 -1.54113,8.21979 -2.95914,16.35657 -3.15114,18.08172 -0.51339,4.61273 0.19362,5.16281 8.98999,6.99447 l 6.92279,1.44153 6.40257,-1.31137 c 3.5214,-0.72126 7.03347,-1.61737 7.80459,-1.99136 1.37659,-0.66765 1.40072,-0.75808 1.32962,-4.98293 -0.0471,-2.80076 -0.97816,-9.03324 -2.66688,-17.85269 -1.42695,-7.45237 -2.59445,-14.15363 -2.59445,-14.89169 0,-2.39036 0.85827,-3.1721 4.94734,-4.50616 9.22259,-3.00887 13.42536,-3.8802 18.67354,-3.87149 7.40516,0.0123 18.54112,1.20647 18.54112,1.98826 0,0.2113 -5.90555,2.60841 -13.12344,5.32691 -18.8236,7.08959 -21.20881,8.60434 -21.12216,13.41388 0.0466,2.58479 1.4837,5.88238 6.79082,15.58207 3.81261,6.96821 3.89944,8.08143 0.83856,10.75131 -1.22836,1.07145 -5.81178,4.20951 -10.18537,6.97348 -9.51469,6.01298 -12.98005,8.93548 -12.98005,10.9467 0,4.30948 12.17719,14.74081 23.4176,20.06021 2.62628,1.24285 5.83567,2.54254 7.13198,2.88817 3.48185,0.92837 6.37167,-0.31962 10.62791,-4.58977 6.76591,-6.78801 7.70543,-11.96508 3.97677,-21.91342 -2.46137,-6.56712 -2.40004,-8.05653 0.46528,-11.29965 1.03191,-1.16797 7.31875,-7.90225 13.97077,-14.96506 6.652,-7.06281 12.42388,-13.62966 12.82639,-14.59299 1.37278,-3.28553 0.95223,-6.68575 -1.35156,-10.92772 -2.48397,-4.57372 -10.68251,-16.11849 -18.07938,-25.45844 -2.96107,-3.73891 -5.40768,-6.83077 -5.43689,-6.87079 -0.0292,-0.04 -4.96779,0.80901 -10.97461,1.88673 -6.00681,1.07773 -12.24053,1.96768 -13.8527,1.97767 -2.23666,0.0139 -5.00508,-0.66793 -11.68345,-2.87738 -8.33536,-2.75765 -8.99417,-2.89477 -13.83198,-2.87887 -4.78545,0.0157 -5.58685,0.18348 -13.83198,2.89556 -6.33308,2.08314 -9.52071,2.87887 -11.53254,2.87887 -2.20401,0 -18.289171,-2.60563 -23.457091,-3.7998 -1.16937,-0.27022 -3.51356,2.44542 -13.22165,15.31669 -9.21824,12.2218 -13.8979,20.07223 -13.89874,23.31596 -0.001,3.86714 1.37022,6.0199 8.8014,13.81796 13.90538,14.5919 20.01004,21.20621 20.5867,22.30543 0.94976,1.81041 0.67296,4.47487 -0.87285,8.40177 -3.09929,7.87326 -3.27425,12.02988 -0.71896,17.08032 1.72297,3.4054 6.24862,8.09922 9.30417,9.64992 3.321521,1.68569 5.563511,1.21661 13.950721,-2.91886 z"
       id="path1100" />
  </g>
</svg>
