<?xml version="1.0" encoding="UTF-8" standalone="no"?>
<!-- Created with Inkscape (http://www.inkscape.org/) -->

<svg
   width="70mm"
   height="180mm"
   viewBox="0 0 70 180"
   version="1.1"
   id="svg5"
   inkscape:version="1.1.1 (3bf5ae0d25, 2021-09-20)"
   sodipodi:docname="collage.svg"
   xmlns:inkscape="http://www.inkscape.org/namespaces/inkscape"
   xmlns:sodipodi="http://sodipodi.sourceforge.net/DTD/sodipodi-0.dtd"
   xmlns="http://www.w3.org/2000/svg"
   xmlns:svg="http://www.w3.org/2000/svg">
  <sodipodi:namedview
     id="namedview7"
     pagecolor="#ffffff"
     bordercolor="#666666"
     borderopacity="1.0"
     inkscape:pageshadow="2"
     inkscape:pageopacity="0.0"
     inkscape:pagecheckerboard="0"
     inkscape:document-units="mm"
     showgrid="false"
     width="70mm"
     inkscape:zoom="0.7144641"
     inkscape:cx="-30.79231"
     inkscape:cy="249.83761"
     inkscape:window-width="1920"
     inkscape:window-height="991"
     inkscape:window-x="1911"
     inkscape:window-y="-9"
     inkscape:window-maximized="1"
     inkscape:current-layer="layer1"
     height="180mm" />
  <defs
     id="defs2" />
  <g
     inkscape:label="Capa 1"
     inkscape:groupmode="layer"
     id="layer1">
    <g
       id="g831"
       transform="translate(-0.02631956,115.32967)">
      <path
         d="m 53.486307,17.205196 a 0.78463364,0.78463364 0 1 0 -1.447207,0.606788 0.78463364,0.78463364 0 1 0 1.447207,-0.606788 z m 7.09461,0.940857 c -0.166549,-0.139328 -0.41357,-0.115519 -0.552902,0.05103 l -2.330328,2.795672 -1.133858,-0.751178 0.657453,-1.606823 c 0.127813,-0.312378 0.09326,-0.639986 -0.05193,-0.901711 l -1.311486,1.471594 -0.344051,0.840857 c -0.141821,0.34661 -0.01959,0.743811 0.292583,0.951472 l 1.218228,0.804428 -1.517938,1.82049 c -0.160144,0.192989 -0.403727,0.296893 -0.655375,0.280097 l -0.277177,-0.0185 c -0.216685,-0.01372 -0.403425,0.149664 -0.41779,0.364833 -0.01436,0.21518 0.149644,0.403429 0.364834,0.417784 l 0.277175,0.01849 c 0.501161,0.03271 0.988326,-0.175094 1.310121,-0.561715 l 4.523456,-5.423936 c 0.137823,-0.165918 0.115521,-0.413574 -0.05103,-0.552901 z m -3.036718,-2.330294 -0.218502,0.24405 -0.241132,-0.207315 c -0.110225,-0.09381 -0.275181,-0.08137 -0.36962,0.02735 -0.09445,0.108727 -0.08137,0.275181 0.02735,0.369623 l 0.234959,0.201042 -0.659006,0.740709 c -0.02705,-0.0011 -0.05557,-0.0015 -0.08413,-0.002 l -1.468365,0.02364 c -0.602162,0.0096 -1.070921,0.523468 -1.026074,1.12504 l 0.06584,0.879926 -0.620438,0.722768 c -0.188252,0.218961 -0.163374,0.548854 0.05558,0.737107 0.21896,0.188254 0.548853,0.163376 0.737108,-0.05558 l 0.692558,-0.804414 c 0.135828,-0.157978 0.202265,-0.363091 0.187595,-0.571417 l -0.02192,-0.297458 0.488034,0.0099 0.121474,0.0023 0.08078,-0.0906 1.849451,-2.078243 0.254988,0.219232 c 0.110225,0.09381 0.275182,0.08137 0.36962,-0.02735 0.09445,-0.108727 0.08137,-0.275181 -0.02736,-0.369623 l -0.249446,-0.214465 0.212226,-0.237875 c 0.09659,-0.107847 0.08566,-0.273431 -0.02157,-0.368504 -0.107258,-0.09506 -0.273437,-0.08565 -0.368508,0.02157 z"
         id="path833"
         style="fill:#000000;fill-opacity:0.596364;stroke:none;stroke-width:0.264584;stroke-opacity:0.51" />
      <path
         d="m 40.038134,3.719099 c 0.0049,-0.08663 0.0081,-0.173273 0.0081,-0.261545 0,-0.833671 -0.259909,-1.569264 -0.65713,-2.085813 -0.397221,-0.51491601 -0.908867,-0.79117101 -1.435224,-0.79117101 -0.526357,0 -1.038005,0.276255 -1.435224,0.79117101 -0.397221,0.516549 -0.65713,1.252142 -0.65713,2.085813 0,0.08827 0.0032,0.174908 0.0081,0.261545 h 1.822637 v 2.092355 h -0.523074 c -0.114427,0 -0.223948,0.02452 -0.322027,0.06866 l -1.963217,-2.16101 h 0.462607 c -0.0049,-0.08663 -0.0081,-0.173273 -0.0081,-0.261545 0,-1.046176 0.362893,-1.981196 0.933386,-2.60399901 C 34.78267,1.386458 34.073232,2.584656 33.837842,3.418328 c -0.04414,0.155292 0.07847,0.300776 0.240294,0.300776 h 0.09808 l 2.293416,2.522268 c -0.05395,0.10625 -0.085,0.227216 -0.085,0.354719 v 1.569265 c 0,0.433184 0.351451,0.784634 0.784633,0.784634 h 1.569267 c 0.433182,0 0.784632,-0.35145 0.784632,-0.784634 V 6.596091 c 0,-0.127503 -0.03106,-0.248467 -0.085,-0.354719 L 41.73158,3.719104 h 0.09809 c 0.161828,0 0.284428,-0.145484 0.240293,-0.300776 -0.235391,-0.833672 -0.94483,-2.03187 -2.433997,-2.56476801 0.570493,0.62280301 0.933386,1.55945901 0.933386,2.60399901 0,0.08827 -0.0032,0.174908 -0.0081,0.261545 h 0.462605 l -1.963216,2.16101 c -0.09807,-0.04414 -0.207601,-0.06866 -0.322026,-0.06866 h -0.5231 V 3.719099 Z"
         id="path1216"
         style="fill:#000000;fill-opacity:0.596364;stroke:none;stroke-width:0.264584;stroke-opacity:0.51" />
      <path
         d="m 7.9000701,57.433691 a 0.784633,0.784633 0 1 1 1.569266,0 0.784633,0.784633 0 1 1 -1.569266,0 z m 0.838577,2.986509 -0.312219,1.247239 0.812422,0.812423 c 0.147119,0.147118 0.230486,0.346544 0.230486,0.554145 v 1.461379 c 0,0.289333 -0.233755,0.523089 -0.523088,0.523089 -0.289334,0 -0.523089,-0.233756 -0.523089,-0.523089 v -1.351857 l -1.208008,-1.208007 c -0.258275,-0.258275 -0.362892,-0.630975 -0.276256,-0.985695 l 0.333469,-1.373108 c 0.135676,-0.557415 0.697996,-0.897424 1.253777,-0.758478 0.310585,0.07847 0.581937,0.268083 0.75848,0.534531 l 0.464241,0.696362 h 0.5051049 v -0.392316 c 0,-0.217408 0.174909,-0.392318 0.392318,-0.392318 0.217408,0 0.392316,0.17491 0.392316,0.392318 v 0.912135 c 0,0.0016 0,0.0032 0,0.0032 0,0 0,0.0032 0,0.0032 v 4.050666 c 0,0.217409 -0.174908,0.392316 -0.392316,0.392316 -0.217409,0 -0.392318,-0.174907 -0.392318,-0.392316 V 61.095303 H 9.6099161 c -0.261544,0 -0.506742,-0.130772 -0.652226,-0.349815 l -0.217409,-0.326901 z m -2.651405,3.942779 0.591743,-2.254184 c 0.04904,0.06866 0.104619,0.134041 0.1651,0.194524 l 0.68492,0.684918 -0.431548,1.639555 c -0.07356,0.279526 -0.359624,0.44626 -0.639149,0.372701 -0.279526,-0.07356 -0.44626,-0.359624 -0.372701,-0.639149 z m 0.907231,-5.655894 -0.575397,2.29832 c -0.04904,0.197792 -0.243563,0.325296 -0.444625,0.292603 l -0.782998,-0.130773 c -0.228852,-0.0376 -0.374336,-0.266449 -0.313853,-0.490395 l 0.405393,-1.494072 c 0.155292,-0.568858 0.671842,-0.964444 1.261951,-0.964444 h 0.06865 c 0.255005,0 0.442991,0.240293 0.380874,0.487126 z"
         id="path1225"
         style="fill:#000000;fill-opacity:0.6;stroke:none;stroke-width:0.264584;stroke-opacity:0.51" />
      <path
         style="fill:none;fill-opacity:0.596364;stroke:#000000;stroke-width:0.965;stroke-linecap:butt;stroke-linejoin:miter;stroke-miterlimit:4;stroke-dasharray:none;stroke-opacity:0.51"
         d="M 10.898244,64.806733 C 16.33724,60.237967 21.370804,57.20797 28.643866,51.047771 38.540819,41.698135 36.71631,43.50627 40.752532,39.73552 52.992194,28.631172 55.559464,26.242587 59.12773,21.260517 63.420813,15.926299 64.943409,10.798652 67.359752,5.9336191 l 3.068106,0.084149"
         id="path2016"
         sodipodi:nodetypes="cccccc" />
      <path
         id="path8233"
         style="fill:none;stroke:#000000;stroke-width:0.264583px;stroke-linecap:butt;stroke-linejoin:miter;stroke-opacity:0.649621"
         d="M 70.427858,6.0177681 70.63934,25.830112 v 0 M 57.215088,24.441396 c 7.869388,-6.295511 8.147132,-6.480673 8.147132,-6.480673 1.388716,10.55424 1.388716,10.369078 1.388716,10.369078 h 0.185162 c 3.240337,-2.499689 3.240337,-2.499689 3.240337,-2.499689 l -0.185162,0.185162 0.648067,-0.185162 h -0.648067" />
    </g>
    <path
       style="fill:#000000;fill-opacity:0.509091;stroke-width:1"
       d="m 60.183583,31.08712 c -0.03613,-0.06751 -0.06569,-0.253847 -0.06569,-0.414074 0,-0.259365 -0.01913,-0.298595 -0.174405,-0.35763 -0.313449,-0.119173 -0.396753,-0.241977 -0.396753,-0.584881 0,-0.240729 -0.03831,-0.36757 -0.158655,-0.525357 -0.08726,-0.114404 -0.158656,-0.265343 -0.158656,-0.33542 0,-0.07008 -0.02818,-0.144831 -0.06263,-0.16612 -0.06885,-0.04255 -0.208288,-0.505117 -0.315801,-1.047637 -0.106441,-0.537111 -0.131865,-0.557622 -0.469311,-0.378607 -0.233609,0.123929 -0.319644,0.140383 -0.465122,0.08895 l -0.178495,-0.0631 -0.0039,-0.776239 c -0.0025,-0.510437 -0.0297,-0.80208 -0.07933,-0.851707 -0.04151,-0.04151 -0.07547,-0.125667 -0.07547,-0.187021 0,-0.06135 -0.207112,-0.334082 -0.460248,-0.606062 -0.253137,-0.271981 -0.545855,-0.598023 -0.650486,-0.724537 l -0.190237,-0.230027 -6.822165,-1.794763 c -3.752191,-0.987119 -6.880118,-1.806724 -6.95095,-1.821343 -0.236682,-0.04885 -0.463859,0.665804 -0.272483,0.85718 0.09407,0.09407 -0.241264,0.244186 -0.762507,0.341359 -0.536546,0.100026 -1.763712,0.04034 -2.055922,-0.09999 -0.328327,-0.157677 -0.51923,-0.480886 -0.469121,-0.794247 0.0412,-0.257664 -4.51e-4,-0.336435 -0.444733,-0.840992 -0.122842,-0.139509 -0.259742,-0.407905 -0.339084,-0.664787 -0.07319,-0.236947 -0.264667,-0.659981 -0.425514,-0.940075 -0.490197,-0.853612 -0.515498,-0.902404 -0.899311,-1.734245 -0.444404,-0.963165 -0.537188,-1.318754 -0.542418,-2.078778 -0.0036,-0.522724 0.01447,-0.612326 0.19909,-0.987342 0.111676,-0.226846 0.345677,-0.575438 0.520002,-0.774649 0.174326,-0.199212 0.402943,-0.487182 0.508039,-0.639933 0.372381,-0.541238 1.036909,-0.989555 1.466789,-0.989555 0.08453,0 0.116864,-0.08346 0.151728,-0.391613 0.08775,-0.7755985 0.393937,-1.3202535 0.910303,-1.6192695 0.164612,-0.09532 0.340052,-0.2316091 0.389866,-0.3028591 0.361051,-0.516413 1.026705,-0.918201 1.608634,-0.970968 0.266922,-0.0242 0.383756,-0.06317 0.40687,-0.135693 0.230025,-0.72173 0.835651,-1.428054 1.384939,-1.615216 0.159879,-0.05448 0.420852,-0.213622 0.579942,-0.353658 0.431068,-0.379441 0.893176,-0.532915 1.481969,-0.492187 0.26178,0.01811 0.534997,0.05143 0.607147,0.07404 0.108703,0.03407 0.151951,-0.0049 0.252378,-0.227648 0.263666,-0.584708 0.944109,-1.090031 1.586311,-1.178054 0.191455,-0.02624 0.411326,-0.113683 0.564059,-0.224322 0.538524,-0.390105 1.390231,-0.46989 2.023892,-0.189591 l 0.2981,0.131864 0.08672,-0.207537 c 0.237911,-0.569404 0.86743,-0.988242 1.560981,-1.038568 0.258316,-0.01874 0.54486,-0.09133 0.762781,-0.193237 0.264026,-0.123461 0.480428,-0.169509 0.888468,-0.189057 0.501414,-0.02402 0.566027,-0.01229 0.916883,0.166503 l 0.377456,0.192345 0.277747,-0.256018 c 0.516273,-0.475884 1.230292,-0.659862 1.886593,-0.48611 0.250972,0.06644 0.377015,0.06836 0.602889,0.0092 0.722258,-0.189301 1.408697,-0.04224 1.911046,0.409413 l 0.312451,0.280921 0.332012,-0.223084 c 0.182607,-0.122697 0.441929,-0.257471 0.576273,-0.299499 0.286133,-0.08952 0.942433,-0.05411 1.215366,0.06557 0.104712,0.04592 0.433128,0.08601 0.729813,0.08909 0.672148,0.007 1.100432,0.195043 1.56647,0.68781 0.269656,0.285121 0.334708,0.406272 0.451342,0.840567 0.238025,0.886298 0.280642,1.552334 0.163055,2.548322 -0.05703,0.483099 -0.106997,1.263893 -0.111026,1.735099 -0.0068,0.791286 -0.02029,0.883404 -0.176966,1.205779 -0.160601,0.3304441 -0.225186,0.6603271 -0.263938,1.3481346 -0.01997,0.354357 -0.153712,0.558 -0.579129,0.881781 l -0.303333,0.230864 -2.422151,5.512448 c -1.332183,3.031846 -2.442328,5.545057 -2.466988,5.584913 -0.06868,0.111006 0.155967,0.657348 0.270295,0.657348 0.201565,0 0.505011,0.237981 1.007425,0.790083 0.354245,0.389279 0.51685,0.617317 0.51685,0.724833 0,0.169563 -0.236481,0.82657 -0.454332,1.262255 -0.131341,0.262672 -0.131882,0.274105 -0.01889,0.398958 0.06681,0.07382 0.117996,0.229525 0.120253,0.365792 0.0043,0.262045 -0.0042,0.248509 0.539279,0.851222 0.211667,0.234722 0.38485,0.450308 0.38485,0.479082 0,0.02877 0.102579,0.08941 0.227953,0.134743 0.165351,0.05979 0.254085,0.144969 0.323106,0.310159 0.05233,0.125252 0.166042,0.320672 0.252684,0.434266 0.249627,0.327278 0.412241,0.813548 0.337658,1.009714 -0.08251,0.217012 -0.08909,0.203797 0.124962,0.250811 0.210097,0.04615 0.308361,0.242719 0.191637,0.383363 -0.08246,0.09935 -0.453672,0.219242 -0.680591,0.219804 -0.107313,2.54e-4 -0.142789,-0.03637 -0.142789,-0.147474 0,-0.111894 -0.03423,-0.146604 -0.140809,-0.14279 -0.08919,0.0032 -0.149593,-0.03845 -0.164767,-0.113592 -0.01318,-0.06525 -0.106483,-0.258595 -0.207347,-0.429661 -0.100865,-0.171066 -0.201086,-0.381535 -0.222714,-0.467708 -0.02163,-0.08617 -0.135379,-0.241016 -0.25278,-0.344096 l -0.213457,-0.187417 -0.39859,0.161346 c -0.219224,0.08874 -0.408851,0.171133 -0.421393,0.183094 -0.01254,0.01196 0.05171,0.216758 0.142789,0.455102 0.178703,0.467661 0.213007,0.778503 0.08627,0.781707 -0.04363,0.0011 -0.0011,0.07089 0.09457,0.155079 0.217766,0.191684 0.179698,0.305399 -0.171047,0.510949 -0.322727,0.189131 -0.391056,0.194037 -0.476587,0.03422 z M 58.27749,26.295313 c 0,-0.01539 -0.02856,-0.04564 -0.06346,-0.06721 -0.0349,-0.02157 -0.06346,-0.009 -0.06346,0.02799 0,0.03696 0.02856,0.06721 0.06346,0.06721 0.0349,0 0.06346,-0.01259 0.06346,-0.02799 z m 0.679401,-0.539388 0.132174,-0.12314 -0.151939,-0.300119 c -0.195111,-0.385394 -0.191942,-0.6021 0.01236,-0.844896 0.120847,-0.143618 0.21735,-0.194722 0.364906,-0.193237 0.282538,0.0028 0.427777,0.136969 0.528137,0.48773 l 0.08684,0.303527 -0.03321,-0.320796 c -0.03926,-0.379229 -0.563298,-1.969271 -0.643224,-1.95167 -0.07715,0.01699 -2.525383,0.981859 -2.551773,1.005675 -0.04807,0.04338 1.293072,1.51992 1.37251,1.511074 0.04724,-0.0053 0.201737,0.116111 0.343323,0.269714 0.289067,0.313601 0.351497,0.331656 0.539893,0.156138 z m 1.539537,-0.951542 c 0.137928,-0.257721 0.0779,-0.514598 -0.180687,-0.773183 -0.135511,-0.135509 -0.275267,-0.246381 -0.31057,-0.246381 -0.05117,0 0.08489,0.533273 0.271216,1.062988 0.04116,0.117009 0.145164,0.09648 0.220041,-0.04342 z M 56.008121,23.539157 C 55.849833,23.315572 55.29809,23.022079 49.868775,20.27341 l -5.965428,-3.020085 -0.16966,0.36236 c -0.09331,0.199297 -0.171379,0.390917 -0.17348,0.425821 -0.0031,0.05069 12.404333,5.710531 12.574838,5.73623 0.02585,0.0039 -0.03127,-0.103466 -0.126924,-0.238579 z m -0.561464,0.02189 c -0.108439,-0.04757 -2.707208,-1.219597 -5.775043,-2.604506 -3.067835,-1.384909 -5.692113,-2.567335 -5.831729,-2.627612 l -0.253848,-0.109594 -0.428369,0.533818 c -0.369794,0.460826 -0.428369,0.568816 -0.428369,0.789756 0,0.158625 -0.05089,0.327406 -0.133847,0.443907 -0.07362,0.103384 -0.123592,0.196609 -0.111058,0.207166 0.03338,0.02812 13.02104,3.452742 13.095961,3.453181 0.0349,1.91e-4 -0.02526,-0.03855 -0.133698,-0.08612 z m 0.225114,-0.564471 c -0.08033,-0.07657 -9.446185,-6.166405 -10.230931,-6.652326 -0.297365,-0.184131 -0.30607,-0.185514 -0.475965,-0.07562 -0.09518,0.06157 -0.287292,0.228632 -0.426908,0.371249 -0.139617,0.142617 -0.338481,0.318725 -0.441921,0.39135 l -0.188073,0.132045 5.011185,2.527509 c 2.756152,1.39013 5.410096,2.735706 5.897654,2.99017 0.82993,0.433152 1.072036,0.522529 0.854959,0.31562 z m -2.38038,-5.149254 c -1.486491,-2.790241 -2.835752,-5.323048 -2.998358,-5.628459 -0.162606,-0.30541 -0.311987,-0.555292 -0.331958,-0.555292 -0.01997,0 -0.08656,0.03675 -0.147984,0.08166 -0.10227,0.07478 0.149225,0.552751 2.98645,5.675784 1.703968,3.07677 3.119822,5.572831 3.146341,5.546802 0.02652,-0.02603 -1.168001,-2.330251 -2.654491,-5.120493 z m 3.337003,4.794715 c 0.620538,-0.312 1.317082,-0.589451 1.760155,-0.701112 0.183246,-0.04618 0.333175,-0.112324 0.333175,-0.146982 0,-0.157898 -5.683266,-11.526536 -5.762201,-11.526536 -0.29331,0 -2.885893,1.240135 -2.85556,1.365927 0.02246,0.09314 5.972505,11.263012 5.999661,11.263012 0.01044,0 0.246583,-0.114439 0.52477,-0.254309 z m -1.055777,-0.01541 c -0.110104,-0.213844 -5.930875,-10.728921 -5.954449,-10.756553 -0.05149,-0.06035 -0.719654,0.533096 -1.430106,1.270172 l -0.842218,0.873781 0.310191,0.331997 c 2.676245,2.864374 7.972204,8.486865 7.993982,8.486865 0.01584,0 -0.01899,-0.09281 -0.0774,-0.206252 z m -0.407031,-0.134394 c -0.05111,-0.04774 -1.934911,-1.693887 -4.186226,-3.658106 -2.251315,-1.964218 -4.172858,-3.644957 -4.270096,-3.734975 l -0.176796,-0.163669 -0.155143,0.188574 c -0.08533,0.103716 -0.204558,0.288527 -0.264954,0.410691 -0.08282,0.167522 -0.203016,0.265501 -0.489016,0.398623 l -0.379205,0.176505 0.630569,0.406438 c 0.346813,0.223541 2.586786,1.67772 4.977717,3.231512 2.390931,1.553791 4.360406,2.826453 4.376612,2.828139 0.01621,0.0017 -0.01235,-0.03599 -0.06346,-0.08373 z m 6.816275,-5.910036 c 1.273027,-2.89686 2.30624,-5.275375 2.296027,-5.285587 -0.01021,-0.01021 -0.08788,0.01301 -0.172595,0.05161 -0.133314,0.06074 -0.199281,0.03973 -0.490543,-0.156279 -0.291262,-0.196004 -0.446957,-0.268531 -0.452091,-0.210593 -7.74e-4,0.0087 -0.853643,2.528961 -1.895267,5.600522 -1.041623,3.071561 -1.877899,5.626853 -1.858391,5.678427 0.02366,0.06255 0.07256,0.0097 0.146867,-0.158655 0.06127,-0.138834 1.152965,-2.622585 2.425993,-5.519445 z M 54.20751,21.45258 C 53.977879,21.216977 52.454188,19.596316 50.821531,17.85111 49.188874,16.105906 47.726576,14.549501 47.57198,14.392432 l -0.281084,-0.285579 -0.350337,0.373376 c -0.291443,0.31061 -0.336138,0.387536 -0.265879,0.457606 0.180512,0.180026 7.892008,6.937046 7.920312,6.93999 0.01652,0.0017 -0.157851,-0.189642 -0.387482,-0.425245 z m 4.683134,0.158655 c -0.04765,-0.113438 -1.210486,-2.74405 -2.584088,-5.845801 l -2.497457,-5.63955 -0.312891,0.03706 c -0.172089,0.02038 -0.323865,0.04803 -0.337278,0.06144 -0.03912,0.03912 5.706712,11.593101 5.765281,11.593101 0.02919,0 0.01408,-0.09281 -0.03357,-0.206252 z m 2.363687,-5.283212 1.830857,-5.39427 -0.166813,-0.07647 c -0.09175,-0.04206 -0.219946,-0.07775 -0.284886,-0.07933 -0.06494,-0.0016 -0.328975,-0.107096 -0.586745,-0.234492 -0.382038,-0.188814 -0.559638,-0.237217 -0.960781,-0.261851 -0.27066,-0.01662 -0.542086,-0.05618 -0.603168,-0.08791 -0.06627,-0.03443 -0.111058,-0.03449 -0.111058,-1.91e-4 0,0.03164 -0.259354,2.467204 -0.576341,5.412369 -0.540891,5.025475 -0.571532,5.382168 -0.498145,5.799078 0.04301,0.244329 0.089,0.415676 0.10221,0.380772 0.01321,-0.0349 0.847899,-2.490883 1.85487,-5.457732 z m -2.044394,5.189227 c -0.01609,-0.06175 -0.03031,-0.02659 -0.03161,0.07812 -0.0013,0.104712 0.01187,0.155231 0.02926,0.112266 0.01738,-0.04297 0.01844,-0.12864 0.0024,-0.190386 z m -0.108412,-0.348959 c 5.08e-4,-0.165085 -0.324619,-2.107024 -0.722563,-4.315417 -0.397944,-2.208394 -0.832245,-4.622896 -0.965112,-5.36556 -0.203494,-1.137429 -0.257008,-1.343832 -0.339454,-1.309277 -0.118655,0.04973 0.02716,0.05391 -1.46231,-0.04193 -0.68063,-0.0438 -1.340537,-0.0602 -1.466461,-0.03645 l -0.228952,0.04318 2.54238,5.740819 c 1.551009,3.502256 2.561705,5.710398 2.59194,5.662803 0.02726,-0.04291 0.05,-0.213087 0.05053,-0.378172 z m 0.636454,-5.919122 c 0.278834,-2.652712 0.51971,-4.897676 0.535282,-4.98881 0.02668,-0.156163 0.002,-0.173885 -0.428437,-0.3079895 -0.838227,-0.261135 -2.067589,-0.236042 -2.507759,0.051189 -0.06713,0.0438 0.102407,1.093079 0.856737,5.302483 0.75733,4.226142 0.949847,5.200987 0.988817,5.007058 0.02661,-0.132448 0.276526,-2.411216 0.55536,-5.063927 z"
       id="path10541" />
  </g>
</svg>
