<?xml version="1.0" encoding="UTF-8" standalone="no"?>
<svg
   viewBox="0 0 300 300"
   version="1.1"
   id="svg31"
   sodipodi:docname="era.svg"
   width="300"
   height="300"
   inkscape:version="1.1.1 (3bf5ae0d25, 2021-09-20)"
   inkscape:export-filename="C:\Users\suitedoalex\sites\brave-logo-0.png"
   inkscape:export-xdpi="561.73712"
   inkscape:export-ydpi="561.73712"
   xmlns:inkscape="http://www.inkscape.org/namespaces/inkscape"
   xmlns:sodipodi="http://sodipodi.sourceforge.net/DTD/sodipodi-0.dtd"
   xmlns="http://www.w3.org/2000/svg"
   xmlns:svg="http://www.w3.org/2000/svg"
   xmlns:rdf="http://www.w3.org/1999/02/22-rdf-syntax-ns#"
   xmlns:cc="http://creativecommons.org/ns#"
   xmlns:dc="http://purl.org/dc/elements/1.1/">
  <metadata
     id="metadata35">
    <rdf:RDF>
      <cc:Work
         rdf:about="">
        <dc:format>image/svg+xml</dc:format>
        <dc:type
           rdf:resource="http://purl.org/dc/dcmitype/StillImage" />
      </cc:Work>
    </rdf:RDF>
  </metadata>
  <sodipodi:namedview
     pagecolor="#ffffff"
     bordercolor="#666666"
     borderopacity="1"
     objecttolerance="10"
     gridtolerance="10"
     guidetolerance="10"
     inkscape:pageopacity="0"
     inkscape:pageshadow="2"
     inkscape:window-width="1920"
     inkscape:window-height="991"
     id="namedview33"
     showgrid="false"
     inkscape:zoom="0.5212857"
     inkscape:cx="-107.4267"
     inkscape:cy="277.19924"
     inkscape:window-x="1911"
     inkscape:window-y="-9"
     inkscape:window-maximized="1"
     inkscape:current-layer="g29"
     inkscape:pagecheckerboard="0"
     width="500px" />
  <defs
     id="defs17">
    <linearGradient
       x1="0.0010835459"
       y1="61.705673"
       x2="121.69413"
       y2="61.705673"
       id="a"
       gradientTransform="scale(0.92289582,1.0835459)"
       gradientUnits="userSpaceOnUse">
      <stop
         stop-color="#F50"
         offset="0%"
         id="stop2" />
      <stop
         stop-color="#F50"
         offset="40.988%"
         id="stop4" />
      <stop
         stop-color="#FF2000"
         offset="58.198%"
         id="stop6" />
      <stop
         stop-color="#FF2000"
         offset="100%"
         id="stop8" />
    </linearGradient>
    <linearGradient
       x1="5.8308024"
       y1="23.863535"
       x2="51.882446"
       y2="23.863535"
       id="b"
       gradientTransform="scale(1.980747,0.50486004)"
       gradientUnits="userSpaceOnUse">
      <stop
         stop-color="#FF452A"
         offset="0%"
         id="stop11" />
      <stop
         stop-color="#FF2000"
         offset="100%"
         id="stop13" />
    </linearGradient>
    <path
       d="M 87.884,13.077 76.372,0 H 35.94 L 24.428,13.077 c 0,0 -10.108,-2.811 -14.881,1.968 0,0 13.477,-1.218 18.11,6.325 0,0 12.495,2.39 14.18,2.39 1.684,0 5.334,-1.406 8.704,-2.53 3.369,-1.125 5.615,-1.133 5.615,-1.133 0,0 2.246,0.008 5.616,1.133 3.37,1.124 7.02,2.53 8.704,2.53 1.685,0 14.18,-2.39 14.18,-2.39 4.632,-7.543 18.11,-6.325 18.11,-6.325 -4.773,-4.78 -14.882,-1.968 -14.882,-1.968"
       id="c"
       inkscape:connector-curvature="0" />
  </defs>
  <g
     id="g29"
     style="fill:none;fill-rule:evenodd"
     transform="matrix(1.5747902,0,0,1.5747902,16.630237,763.27292)">
    <path
       style="fill:#ec5242;fill-opacity:1;stroke-width:0.999996"
       d="m 51.462059,-361.07002 c -1.814325,-0.10883 -4.814093,-0.37784 -6.666147,-0.59778 -24.410185,-2.89889 -42.0457512,-12.04149 -48.2263162,-25.0014 -1.570668,-3.29351 -2.199121,-5.94173 -2.334093,-9.83555 -0.188885,-5.44918 0.746977,-9.70857 3.378121,-15.37484 2.24605696,-4.83698 6.128435,-8.85531 10.960319,-11.34413 4.4403542,-2.28715 9.1487802,-3.29364 15.4749912,-3.30799 4.348685,-0.01 7.974775,0.48603 14.177639,1.9389 2.138958,0.50101 4.109396,0.85427 4.378759,0.78504 0.269358,-0.0692 1.434514,-0.47223 2.58923,-0.89555 2.859713,-1.04837 5.860109,-1.5148 9.685316,-1.50562 4.877732,0.0117 8.775267,0.91242 11.127249,2.57153 2.770204,1.95412 1.89826,4.70513 -1.631037,5.14595 -2.600747,0.32484 -6.191849,-0.25052 -14.905566,-2.38817 l -4.57609,-1.12261 -1.399179,0.99654 c -1.811524,1.29023 -3.533667,3.30241 -4.28024,5.00111 -0.795091,1.8091 -0.975799,4.35944 -0.417523,5.89261 0.637436,1.75056 0.904549,1.85393 4.383639,1.69639 3.196385,-0.14474 4.942073,0.13654 5.198587,0.83763 0.07781,0.21266 -0.0081,0.48596 -0.190816,0.60732 -0.523967,0.34797 -4.036785,0.26482 -6.072756,-0.14373 -1.72533,-0.34623 -1.987186,-0.33883 -3.770655,0.10648 -4.085255,1.02003 -9.240051,3.41817 -13.077352,6.08392 -2.648768,1.84008 -5.904713,5.23281 -7.119243,7.41832 -1.500539,2.70018 -1.956495,4.61985 -1.956495,8.23726 0,2.90561 0.04559,3.21854 0.659936,4.53021 1.042989,2.22686 3.387107,4.17076 5.906823,4.89833 l 0.852912,0.24628 -0.550328,-1.42898 c -1.581222,-4.10578 -0.531544,-9.74151 2.638071,-14.16382 3.093934,-4.31673 8.80809,-8.59886 13.705071,-10.27044 4.982535,-1.7008 10.631971,-1.66312 13.484089,0.0899 1.351955,0.83098 2.829564,2.65255 3.282446,4.04656 0.758963,2.33614 0.33543,6.17248 -0.983992,8.91292 -1.403559,2.91519 -3.203851,5.11369 -6.140434,7.49864 -5.950037,4.83234 -11.887225,6.94542 -19.607883,6.97856 l -3.656739,0.0157 1.384838,1.35192 c 2.665572,2.6022 5.92834,3.65609 10.690178,3.45298 2.233943,-0.0953 3.262854,-0.265 4.718511,-0.7783 1.023876,-0.36104 1.961302,-0.59181 2.083173,-0.51281 1.231376,0.79818 -3.82098,2.11546 -8.082774,2.10739 -4.644862,-0.009 -7.992213,-1.35721 -10.850805,-4.37104 -1.528036,-1.61102 -1.824197,-1.80912 -3.343095,-2.23618 -2.778083,-0.78111 -5.677106,-2.46198 -7.490456,-4.34301 -3.352345,-3.47746 -4.141861,-7.6729 -2.375635,-12.62397 1.125078,-3.15381 4.410904,-7.18708 7.851614,-9.63766 4.181152,-2.97795 10.444402,-5.30027 16.87565,-6.25723 l 2.005028,-0.29835 -0.848236,-0.45641 c -1.033091,-0.55588 -2.202619,-1.75185 -2.746468,-2.80857 -0.667472,-1.29693 -0.564897,-4.44664 0.200399,-6.1535 0.711675,-1.58727 2.207355,-3.28791 4.013761,-4.56379 l 1.264394,-0.89305 -0.923299,-0.25783 c -1.948178,-0.54401 -7.582067,-1.53064 -10.263205,-1.79733 -4.953607,-0.49273 -11.671377,0.20252 -15.896237,1.64518 -5.4018732,1.84456 -11.3416262,6.22036 -13.86311124,10.2129 -1.054237,1.66929 -2.84125296,6.21847 -3.56972396,9.08741 -0.537266,2.11588 -0.61594,2.92755 -0.622032,6.4174 -0.0063,3.63808 0.05025,4.19127 0.633343,6.18956 1.469619,5.0365 4.13986896,9.15249 8.365934,12.89544 9.6451272,8.54252 25.4196152,13.99758 44.8861452,15.52232 5.510733,0.43164 18.989379,0.14895 24.164794,-0.50681 7.568168,-0.95893 13.681776,-2.22842 20.097376,-4.1732 13.051346,-3.95629 24.942636,-10.96664 29.534516,-17.41168 2.68736,-3.7719 3.89604,-6.78344 4.74045,-11.81122 l 0.41186,-2.45229 2.48653,-0.15798 c 3.89127,-0.24721 7.10406,-1.1838 10.72724,-3.12717 4.04196,-2.16798 6.14511,-4.94777 5.83528,-7.71262 -0.13312,-1.18791 -0.10041,-1.30504 0.43595,-1.56135 0.55556,-0.26548 0.82005,0.0151 6.30675,6.6908 3.14978,3.83234 5.72687,7.01089 5.72687,7.06345 0,0.0525 -0.66433,2.4e-4 -1.47629,-0.1162 -2.05018,-0.29407 -3.72244,0.0805 -6.2612,1.40257 -3.64288,1.897 -8.06414,6.43547 -9.71591,9.97346 l -0.6217,1.33164 -3.16388,0.14548 c -3.67533,0.169 -6.54981,0.80229 -12.13279,2.67305 -3.44175,1.15327 -3.85732,1.35893 -5.35673,2.65097 -15.54941,13.39895 -42.476701,20.71065 -70.157321,19.05014 z m -17.862764,-14.09762 c 5.515129,-1.0087 11.242635,-4.0053 16.145289,-8.4471 4.413751,-3.99886 6.774336,-9.28583 5.767651,-12.91773 -0.490311,-1.76893 -1.727713,-3.25972 -3.43589,-4.13948 -1.284127,-0.66136 -1.541514,-0.70155 -4.45781,-0.6962 -4.668824,0.009 -7.744008,1.07311 -12.310568,4.26157 -7.266587,5.07368 -11.651924,11.98023 -11.328416,17.84135 0.139024,2.51877 0.886451,4.0386 2.096951,4.26396 1.611073,0.29994 5.435683,0.21535 7.522793,-0.16637 z m 96.476425,-9.99104 c 3.75941,-1.08548 6.00892,-1.52721 8.90452,-1.74855 l 2.32098,-0.17742 1.36162,-2.14628 c 3.23511,-5.09937 8.64569,-9.36072 13.12936,-10.34062 l 1.39147,-0.3041 -3.82167,-4.65439 -3.82168,-4.6544 -0.50778,1.31035 c -0.27927,0.72068 -0.73089,1.63534 -1.00358,2.03257 -2.51551,3.66431 -9.68625,7.08328 -16.19233,7.72042 -1.6257,0.1592 -1.73492,0.2082 -1.85114,0.83035 -0.85034,4.5519 -2.28193,8.63397 -3.94035,11.23557 -0.40508,0.63545 0.89093,-0.23822 5.39763,-3.63871 5.00512,-3.77656 5.94941,-4.58758 6.05054,-5.19655 0.18459,-1.11162 1.50536,-1.94024 2.84673,-1.78595 1.71357,0.1971 2.41934,1.71222 1.33814,2.87269 -0.50929,0.54663 -2.07202,1.00081 -2.74602,0.79807 -0.54441,-0.16375 -1.34938,0.3623 -6.55286,4.28229 -6.24115,4.70171 -6.47927,4.89316 -5.71928,4.59821 0.26189,-0.10165 1.79895,-0.56674 3.4157,-1.03355 z m -64.723257,-34.39468 c 1.143581,-0.41039 1.584185,-1.38599 1.084054,-2.40034 -0.464283,-0.94165 -2.633545,-2.04786 -5.247605,-2.67602 -2.285512,-0.5492 -7.344683,-0.60735 -9.523072,-0.10944 -1.77558,0.40583 -5.356728,1.74686 -5.356728,2.00592 0,0.50902 8.846757,2.76308 12.681461,3.23111 2.544927,0.31061 5.418069,0.28747 6.36189,-0.0513 z m 16.109923,44.67043 c -1.23968,-0.48081 -1.949257,-1.23276 -2.717647,-2.87995 -0.514686,-1.10333 -0.647283,-1.74331 -0.64954,-3.13501 -0.0016,-0.96178 0.0831,-2.17413 0.188131,-2.69411 l 0.190968,-0.94543 -1.422326,1.09816 c -3.190428,2.46329 -6.142909,1.92562 -6.589821,-1.20008 -0.08522,-0.59602 -0.05157,-1.59202 0.07477,-2.21333 l 0.229719,-1.12965 -0.588737,0.40459 c -1.164588,0.80031 -3.57602,4.14968 -5.982571,8.30953 l -2.451413,4.23739 h -2.360676 c -1.298371,0 -2.360676,-0.0691 -2.360676,-0.15344 0,-0.0844 1.78801,-3.20248 3.973357,-6.92909 4.30998,-7.34968 6.609386,-11.78369 6.871894,-13.25128 0.209914,-1.17355 -0.260787,-1.78503 -1.186487,-1.54136 -0.924049,0.24324 -3.367925,2.9015 -5.706129,6.20669 -1.890463,2.67228 -2.524176,3.35016 -2.524176,2.70011 0,-0.37636 3.491058,-4.99263 5.084466,-6.72326 2.852914,-3.09859 4.024902,-3.60864 5.653302,-2.46031 1.942873,1.37008 1.836781,5.27132 -0.254185,9.34708 l -0.668477,1.303 1.407055,-1.303 c 0.978922,-0.90654 1.694421,-1.87284 2.35148,-3.17574 2.244845,-4.45138 5.385792,-7.27983 7.355865,-6.62403 0.809009,0.2693 0.878639,1.2538 0.168301,2.37959 -0.74503,1.18075 -2.315835,2.52309 -5.450181,4.65747 -2.590838,1.76426 -2.811345,2.10641 -2.871904,4.45606 -0.04586,1.77924 0.367936,2.95091 1.179063,3.33852 1.978156,0.9453 4.534099,-0.66928 7.480898,-4.72564 2.366262,-3.25723 5.604425,-5.93738 9.871415,-8.17033 5.50156,-2.87901 8.68084,-2.68967 8.69278,0.51769 0.003,0.77034 0.0319,0.74645 0.79003,-0.64935 l 0.787036,-1.44912 2.42424,-0.049 c 1.33333,-0.027 2.42414,-0.0207 2.42401,0.014 -1.2e-4,0.0347 -1.87178,3.32484 -4.15925,7.31142 -2.287456,3.98659 -4.534956,8.07922 -4.994436,9.09475 -1.41007,3.11647 -1.50787,4.66581 -0.338,5.3545 0.54814,0.32267 0.7163,0.30186 1.73349,-0.21459 1.94615,-0.9881 6.268046,-5.88657 9.757746,-11.05948 0.62537,-0.927 1.29518,-1.68546 1.48847,-1.68546 0.57289,0 -0.43583,1.63274 -3.35672,5.43325 -3.38436,4.40358 -5.890496,7.03136 -7.516196,7.88101 -1.50943,0.78889 -2.14955,0.82254 -3.49159,0.18349 -2.3138,-1.10178 -3.0633,-4.3496 -1.82534,-7.90984 0.0897,-0.25802 -0.62561,0.59833 -1.5896,1.903 -4.0753,5.51549 -6.509509,7.15404 -9.122411,6.14062 z m 3.321238,-1.13347 c 2.93349,-1.76465 10.55374,-12.03318 12.37281,-16.67275 1.48193,-3.77967 -0.047,-5.32051 -3.48919,-3.51645 -3.55551,1.86343 -9.805349,9.52878 -11.767462,14.43265 -1.185613,2.96318 -1.043883,5.68512 0.323383,6.21059 0.982347,0.37754 1.259883,0.32833 2.560459,-0.45404 z m 71.115096,-29.91937 c -3.52451,-4.08293 -6.48253,-7.55253 -6.57341,-7.71024 -0.10338,-0.17943 2.21766,-2.20054 6.20243,-5.40088 3.50221,-2.81278 7.06179,-5.69861 7.9102,-6.41297 l 1.54256,-1.29883 0.5417,0.70699 0.5417,0.70698 -0.77483,0.67628 c -0.42617,0.37195 -3.20648,2.61922 -6.17846,4.99393 -2.972,2.37471 -5.40822,4.37384 -5.41385,4.44251 -0.008,0.10331 4.23475,5.06901 9.77039,11.43399 l 1.14911,1.32128 6.20932,-4.89165 c 3.41512,-2.6904 6.3493,-4.94798 6.52039,-5.01684 0.1711,-0.0689 0.49418,0.16787 0.71796,0.52608 0.39752,0.6363 0.39174,0.66385 -0.25107,1.1986 -1.0999,0.91496 -13.26062,10.479 -14.42107,11.34173 l -1.08488,0.80654 z m 7.37647,4.99286 c 0.35799,-0.41487 0.0336,-0.84706 -5.10789,-6.80424 -3.01958,-3.49867 -5.55873,-6.38664 -5.64256,-6.41773 -0.0838,-0.0311 -0.38483,0.13747 -0.66887,0.37455 -0.51434,0.4293 -0.49371,0.45722 5.06807,6.86075 3.07148,3.53632 5.67102,6.42969 5.77675,6.42969 0.10574,0 0.36426,-0.19936 0.5745,-0.44302 z"
       id="path4836" />
  </g>
</svg>
