<?xml version="1.0" encoding="UTF-8" standalone="no"?>
<svg
   viewBox="0 0 113 113"
   version="1.1"
   id="svg4"
   sodipodi:docname="hiking.svg"
   width="113"
   height="113"
   inkscape:version="1.1.1 (3bf5ae0d25, 2021-09-20)"
   xmlns:inkscape="http://www.inkscape.org/namespaces/inkscape"
   xmlns:sodipodi="http://sodipodi.sourceforge.net/DTD/sodipodi-0.dtd"
   xmlns="http://www.w3.org/2000/svg"
   xmlns:svg="http://www.w3.org/2000/svg">
  <defs
     id="defs8" />
  <sodipodi:namedview
     id="namedview6"
     pagecolor="#ffffff"
     bordercolor="#666666"
     borderopacity="1.0"
     inkscape:pageshadow="2"
     inkscape:pageopacity="0.0"
     inkscape:pagecheckerboard="0"
     showgrid="false"
     inkscape:zoom="4.4304659"
     inkscape:cx="43.11059"
     inkscape:cy="56.314619"
     inkscape:window-width="1920"
     inkscape:window-height="991"
     inkscape:window-x="-9"
     inkscape:window-y="-9"
     inkscape:window-maximized="1"
     inkscape:current-layer="svg4" />
  <!--! Font Awesome Pro 6.4.0 by @fontawesome - https://fontawesome.com License - https://fontawesome.com/license (Commercial License) Copyright 2023 Fonticons, Inc. -->
  <g
     id="g3558">
    <path
       id="path2"
       style="stroke-width:1;fill:#c52420;fill-opacity:1"
       d="m 54.576535,16.626327 a 9.403608,9.403608 0 1 1 18.807216,0 9.403608,9.403608 0 1 1 -18.807216,0 z m 10.050111,35.792483 -3.741858,14.947816 9.736654,9.736652 c 1.763176,1.763176 2.762309,4.153259 2.762309,6.6413 v 17.514212 c 0,3.46759 -2.80149,6.26908 -6.269072,6.26908 -3.467576,0 -6.269072,-2.80149 -6.269072,-6.26908 V 85.057168 L 46.367969,70.57953 C 43.272614,67.484174 42.018802,63.017459 43.057115,58.766243 L 47.053652,42.30993 c 1.626039,-6.680479 8.365288,-10.755377 15.026183,-9.090152 3.722262,0.940362 6.974339,3.212897 9.090152,6.40621 l 5.563798,8.345698 h 6.053571 c 0.147223,2.801427 0.518877,0.573077 -0.112855,12.538143 h -7.605935 c -3.134536,0 -6.073163,-1.567268 -7.816749,-4.192439 L 64.646236,52.39922 Z M 32.850283,99.671938 39.942169,72.656156 c 0.587726,0.822818 1.253818,1.606452 1.978682,2.331309 l 8.20856,8.208563 -5.171982,19.649632 c -0.881585,3.35003 -4.309987,5.3483 -7.660021,4.46671 -3.350035,-0.88159 -5.3483,-4.30999 -4.466715,-7.660022 z" />
    <path
       style="stroke-width:1;fill:#d3d3d3;fill-opacity:1"
       d="m 42.057508,31.309856 -6.89598,27.544737 c -0.58773,2.370492 -2.91904,3.898579 -5.32872,3.506762 l -9.38402,-1.567268 c -2.74271,-0.450594 -4.4863,-3.193312 -3.76144,-5.877254 l 4.85854,-17.906041 c 1.86112,-6.817616 8.05183,-11.5586 15.12413,-11.5586 h 0.82281 c 3.05618,0 5.30913,2.879857 4.56468,5.838074 z"
       id="path2159" />
    <path
       style="fill:#d3d3d3;fill-opacity:1;stroke-width:1"
       d="m 82.787356,47.971686 v -4.701804 c 0,-2.605581 2.09623,-4.701804 4.70181,-4.701804 2.60559,0 4.7018,2.096223 4.7018,4.701804 v 10.931696 0.03915 0.03915 48.546132 c 0,2.60559 -2.09621,4.70181 -4.7018,4.70181 -2.60558,0 -4.70181,-2.09622 -4.70181,-4.70181 V 60.50983 c 0.086,-6.827441 0.0609,-5.250823 0,-12.538144 z"
       id="path2155"
       sodipodi:nodetypes="cssscccssscc" />
  </g>
</svg>
