<?xml version="1.0" encoding="UTF-8" standalone="no"?>
<svg
   viewBox="0 0 300 300"
   version="1.1"
   id="svg31"
   sodipodi:docname="ironman.svg"
   width="300"
   height="300"
   inkscape:version="1.1.1 (3bf5ae0d25, 2021-09-20)"
   inkscape:export-filename="C:\Users\suitedoalex\sites\brave-logo-0.png"
   inkscape:export-xdpi="561.73712"
   inkscape:export-ydpi="561.73712"
   xmlns:inkscape="http://www.inkscape.org/namespaces/inkscape"
   xmlns:sodipodi="http://sodipodi.sourceforge.net/DTD/sodipodi-0.dtd"
   xmlns="http://www.w3.org/2000/svg"
   xmlns:svg="http://www.w3.org/2000/svg"
   xmlns:rdf="http://www.w3.org/1999/02/22-rdf-syntax-ns#"
   xmlns:cc="http://creativecommons.org/ns#"
   xmlns:dc="http://purl.org/dc/elements/1.1/">
  <metadata
     id="metadata35">
    <rdf:RDF>
      <cc:Work
         rdf:about="">
        <dc:format>image/svg+xml</dc:format>
        <dc:type
           rdf:resource="http://purl.org/dc/dcmitype/StillImage" />
      </cc:Work>
    </rdf:RDF>
  </metadata>
  <sodipodi:namedview
     pagecolor="#ffffff"
     bordercolor="#666666"
     borderopacity="1"
     objecttolerance="10"
     gridtolerance="10"
     guidetolerance="10"
     inkscape:pageopacity="0"
     inkscape:pageshadow="2"
     inkscape:window-width="1920"
     inkscape:window-height="991"
     id="namedview33"
     showgrid="false"
     inkscape:zoom="0.5212857"
     inkscape:cx="-107.4267"
     inkscape:cy="277.19924"
     inkscape:window-x="1911"
     inkscape:window-y="-9"
     inkscape:window-maximized="1"
     inkscape:current-layer="g29"
     inkscape:pagecheckerboard="0"
     width="500px" />
  <defs
     id="defs17">
    <linearGradient
       x1="0.0010835459"
       y1="61.705673"
       x2="121.69413"
       y2="61.705673"
       id="a"
       gradientTransform="scale(0.92289582,1.0835459)"
       gradientUnits="userSpaceOnUse">
      <stop
         stop-color="#F50"
         offset="0%"
         id="stop2" />
      <stop
         stop-color="#F50"
         offset="40.988%"
         id="stop4" />
      <stop
         stop-color="#FF2000"
         offset="58.198%"
         id="stop6" />
      <stop
         stop-color="#FF2000"
         offset="100%"
         id="stop8" />
    </linearGradient>
    <linearGradient
       x1="5.8308024"
       y1="23.863535"
       x2="51.882446"
       y2="23.863535"
       id="b"
       gradientTransform="scale(1.980747,0.50486004)"
       gradientUnits="userSpaceOnUse">
      <stop
         stop-color="#FF452A"
         offset="0%"
         id="stop11" />
      <stop
         stop-color="#FF2000"
         offset="100%"
         id="stop13" />
    </linearGradient>
    <path
       d="M 87.884,13.077 76.372,0 H 35.94 L 24.428,13.077 c 0,0 -10.108,-2.811 -14.881,1.968 0,0 13.477,-1.218 18.11,6.325 0,0 12.495,2.39 14.18,2.39 1.684,0 5.334,-1.406 8.704,-2.53 3.369,-1.125 5.615,-1.133 5.615,-1.133 0,0 2.246,0.008 5.616,1.133 3.37,1.124 7.02,2.53 8.704,2.53 1.685,0 14.18,-2.39 14.18,-2.39 4.632,-7.543 18.11,-6.325 18.11,-6.325 -4.773,-4.78 -14.882,-1.968 -14.882,-1.968"
       id="c"
       inkscape:connector-curvature="0" />
  </defs>
  <g
     id="g29"
     style="fill:none;fill-rule:evenodd"
     transform="matrix(1.5747902,0,0,1.5747902,16.630237,763.27292)">
    <g
       id="g4699"
       transform="matrix(0.2724952,0,0,0.2724952,155.47243,-295.60903)"
       style="stroke-width:3.66979">
      <path
         style="fill:#ec5242;fill-opacity:1;stroke-width:3.66979"
         d="m 36.512099,-166.81141 -8.57257,-0.34492 v -9.04957 -9.04957 l 8.04437,6.3e-4 c 4.4244,4.1e-4 8.49637,-0.1727 9.04882,-0.38469 0.79395,-0.30465 1.00445,0.0647 1.00445,1.7623 v 2.14775 l -6.66755,-0.24681 -6.66756,-0.24682 v 2.0487 2.04869 l 4.44504,-0.25116 4.44504,-0.25117 v 2.84653 c 0,2.21397 -0.16936,2.67719 -0.76201,2.08452 -0.41942,-0.41938 -2.43607,-0.762 -4.48529,-0.762 h -3.72323 l 0.19895,2.06377 0.19901,2.06376 5.33849,0.18605 c 3.11736,0.10863 5.61408,-0.0895 6.0008,-0.47626 1.21089,-1.21087 1.67831,-0.6879 1.67831,1.87773 0,1.39701 -0.21431,2.48092 -0.47625,2.40868 -0.26194,-0.0722 -4.33391,-0.28655 -9.04882,-0.47626 z"
         id="path4294" />
      <path
         style="fill:#ec5242;fill-opacity:1;stroke-width:3.66979"
         d="m 13.969409,-166.81141 c -4.8895397,-0.1897 -8.5502797,-0.56533 -8.1350497,-0.83472 0.91783,-0.59541 1.06389,-16.33784 0.15157,-16.33784 -0.32398,0 -0.58909,-0.28575 -0.58909,-0.635 0,-0.34925 1.46375,-0.63501 3.25275,-0.63501 2.7116597,0 3.1304497,0.14747 2.5170997,0.88647 -0.48146,0.58015 -0.67292,3.15839 -0.55398,7.46131 l 0.18167,6.57485 5.39755,0.0409 c 2.96865,0.0225 5.89761,-0.20187 6.5088,-0.4986 0.96388,-0.46795 1.11126,-0.19967 1.11126,2.02287 0,1.4093 -0.21431,2.50326 -0.47625,2.43102 -0.26194,-0.0722 -4.47679,-0.28655 -9.36633,-0.47625 z"
         id="path4292" />
      <path
         id="path4272"
         style="fill:#d3d3d3;fill-opacity:1;stroke-width:3.66979"
         d="m -251.38197,-293.05167 c -0.21766,-0.21766 -0.39575,-23.49406 -0.39575,-51.72534 v -51.32958 h 61.278 61.27801 v 51.68891 51.68893 l -17.9389,-0.0948 -17.9389,-0.0947 -0.3175,-18.41516 c -0.1912,-11.08944 -0.53402,-17.90992 -0.86178,-17.14514 -0.70156,1.63704 -9.80662,27.70146 -10.9562,31.36358 -1.4434,4.59815 -1.22407,4.5152 -11.91371,4.50555 -5.28335,-0.005 -10.20534,-0.16955 -10.93776,-0.36618 -1.09287,-0.29339 -2.51628,-3.62262 -7.93756,-18.56523 l -6.60589,-18.20773 -0.31751,18.41515 -0.3175,18.41516 -17.86065,0.13116 c -9.82336,0.0721 -18.03874,-0.0469 -18.2564,-0.26459 z m 51.54622,-111.26591 c -8.02131,-2.56473 -14.33436,-8.09485 -18.17279,-15.91907 -2.29751,-4.68322 -2.33642,-4.88946 -2.33642,-12.3826 0,-7.49729 0.0377,-7.69679 2.34075,-12.3826 5.44117,-11.0707 15.18588,-17.14515 27.50449,-17.14515 17.17224,0 30.37438,12.85769 30.31879,29.52775 -0.0441,13.21503 -8.31027,24.35581 -20.97355,28.2671 -5.29237,1.63465 -13.6287,1.65008 -18.68127,0.0346 z" />
      <path
         id="path4260"
         style="fill:#ec5242;fill-opacity:1;stroke-width:3.66979"
         d="m -591.50809,-343.68788 v -51.75292 h 20.32017 20.32017 v 51.75292 51.75293 h -20.32017 -20.32017 z m 46.99039,0.0286 v -51.72429 l 37.30656,-0.18739 c 38.96053,-0.19569 42.40418,-0.007 45.79938,2.50289 2.62066,1.93769 6.31985,7.16758 7.52929,10.64484 0.83628,2.40437 1.09842,5.17874 1.07999,11.43009 -0.0209,7.1115 -0.23027,8.78288 -1.511,12.0651 -1.42134,3.64261 -5.03821,7.91574 -8.87186,10.48163 -1.41915,0.94985 -1.40337,0.97431 2.25228,3.49253 2.25127,1.5508 4.43066,3.74956 5.61003,5.65991 l 1.92858,3.12393 0.1822,22.11753 0.18219,22.11752 h -20.66111 -20.66111 v -18.69132 c 0,-10.36472 -0.27073,-19.40338 -0.60773,-20.28975 -0.81251,-2.13706 -4.03571,-3.76108 -6.42368,-3.2366 l -1.85867,0.40823 v 20.90472 20.90472 h -20.63767 -20.63767 v -51.7243 z m 48.21463,-16.17549 c 0.67333,-0.67333 1.40866,-2.45928 1.63408,-3.96879 0.73312,-4.90938 -1.27287,-7.6123 -6.1921,-8.34335 l -2.38127,-0.35389 v 6.94513 6.94514 h 2.85753 c 1.97523,0 3.23551,-0.378 4.08176,-1.22424 z m 97.80244,42.18794 1.62165,-1.62103 0.16847,-24.59263 c 0.16131,-23.5469 0.11509,-24.67935 -1.08707,-26.63198 -2.13854,-3.47356 -7.77546,-3.88551 -10.35274,-0.75658 -1.017,1.23467 -1.11126,3.48586 -1.11126,26.53768 0,27.19388 0.005,27.23657 3.40172,28.68109 2.14274,0.91127 5.58742,0.1546 7.35923,-1.61655 z m 324.830259,-25.88234 c -0.2143,-2.18283 -0.64325,-5.96905 -0.95323,-8.41382 -0.30998,-2.44477 -0.74934,-6.51674 -0.97636,-9.04882 -0.22702,-2.53208 -0.64895,-4.60379 -0.93763,-4.60379 -0.28868,0 -0.68104,1.5002 -0.87192,3.33378 -0.19087,1.83358 -0.64904,6.33418 -1.01813,10.00133 -0.36909,3.66716 -0.83347,7.85557 -1.03194,9.30758 -0.39696,2.9041 -0.0661,3.17298 4.08354,3.31887 l 2.09529,0.0737 z m 155.48431,48.68756 c 1.03588,-0.39752 1.04134,-0.38776 -2.28024,-4.07844 l -1.42877,-1.58751 -0.1971,2.38127 c -0.1084,1.3097 -0.53703,2.38564 -0.95251,2.39099 -0.45269,0.006 -0.3737,0.25639 0.19711,0.62528 1.07322,0.69359 3.22989,0.81776 4.66151,0.26841 z m -6.05376,-8.68223 -0.19527,-2.69877 -1.11126,2.03223 c -0.61119,1.11773 -1.11126,2.63212 -1.11126,3.36531 0,0.7332 0.50007,2.24759 1.11126,3.36532 l 1.11126,2.03223 0.19527,-2.69877 c 0.10738,-1.48433 0.10738,-3.91322 0,-5.39755 z m 9.71196,4.76254 c 0.9699,-2.53491 -0.20714,-5.94403 -2.52504,-7.31325 -1.97143,-1.16456 -5.15967,-1.49148 -5.15967,-0.52906 0,0.31432 1.03703,0.5715 2.30456,0.5715 1.26747,0 2.54898,0.38577 2.84781,0.85726 0.84202,1.32875 0.66022,3.47835 -0.36633,4.33026 -0.81306,0.67481 -0.80398,0.96179 0.073,2.30028 1.30049,1.98473 2.00382,1.93071 2.82565,-0.21699 z m -4.50968,-4.28628 c 0,-0.59267 -0.5997,-0.95251 -1.58752,-0.95251 -0.98781,0 -1.58751,0.35984 -1.58751,0.95251 0,0.59267 0.5997,0.9525 1.58751,0.9525 0.98782,0 1.58752,-0.35983 1.58752,-0.9525 z m -508.004189,10.6833 c -9.38736,-1.7424 -15.92501,-6.30373 -19.25334,-13.43309 -1.36923,-2.93292 -1.38433,-3.34275 -1.38433,-37.57305 0,-31.57237 0.0993,-34.89234 1.13261,-37.85221 2.05413,-5.88414 6.8305,-10.27978 13.79001,-12.69078 3.22427,-1.117 5.58985,-1.20993 30.79776,-1.20993 25.20791,0 27.57348,0.0929 30.79775,1.20993 9.08887,3.14868 13.66853,8.61877 15.202,18.15773 0.93224,5.79899 0.88786,59.30414 -0.0537,64.71852 -1.68636,9.69754 -5.7362,14.49421 -14.88446,17.62932 -2.69647,0.92409 -6.62235,1.08798 -28.8391,1.20396 -14.14474,0.0738 -26.43209,0.002 -27.30522,-0.1604 z m 76.99065,-51.15557 0.16249,-51.60349 20.13432,-0.16764 20.13432,-0.16763 0.7809,1.43765 c 0.4295,0.7907 2.94203,6.98738 5.58339,13.77038 2.64137,6.78301 5.15968,12.45043 5.59625,12.59428 0.61894,0.20393 0.79375,-2.82881 0.79375,-13.77082 v -14.03235 l 19.20891,0.16807 19.20891,0.16806 0.16248,51.59417 0.16249,51.59418 h -19.59505 -19.59505 l -1.62152,-4.60379 c -1.61899,-4.5966 -2.4977,-7.03793 -7.48524,-20.79642 -1.45597,-4.01641 -2.95028,-8.23126 -3.32067,-9.36633 -0.3704,-1.13507 -0.90688,-2.06376 -1.19218,-2.06376 -0.28529,0 -0.59454,8.21538 -0.68721,18.2564 l -0.16849,18.2564 -19.21264,0.16806 -19.21265,0.16807 z m 223.36939,50.7911 c 0.001,-0.43656 0.58544,-4.36566 1.29786,-8.73132 0.71242,-4.36566 2.29311,-14.08124 3.51265,-21.59018 1.21953,-7.50893 3.33851,-20.51067 4.70882,-28.89274 1.37032,-8.38206 3.55139,-21.74099 4.84681,-29.68649 l 2.35531,-14.44637 h 32.901239 32.90124 l 0.28405,1.42876 c 0.45482,2.28764 2.13466,11.59852 3.58019,19.84392 0.73474,4.19103 1.58919,9.04882 1.89878,10.79509 0.30958,1.74626 1.27134,7.17555 2.13722,12.06509 0.86589,4.88954 2.03606,11.46185 2.60039,14.60512 1.10257,6.14126 1.13118,6.3041 4.1285,23.4952 1.09608,6.28655 2.40173,13.57323 2.90143,16.19263 0.49971,2.6194 0.90861,4.97685 0.90867,5.23879 6e-5,0.26194 -9.40701,0.47626 -20.9046,0.47626 h -20.90472 l -0.35547,-1.74627 c -0.1955,-0.96044 -0.63889,-4.03228 -0.98529,-6.8263 -0.34641,-2.79403 -0.96516,-7.60777 -1.37501,-10.69721 l -0.74518,-5.61718 -1.89189,0.37839 c -1.04053,0.2081 -3.39683,0.37837 -5.23619,0.37837 -4.0183,0 -3.79106,-0.54811 -4.73882,11.43009 -0.37306,4.71492 -0.8462,9.50127 -1.05142,10.63634 l -0.37312,2.06377 h -21.201999 c -16.53964,0 -21.20144,-0.17455 -21.19945,-0.79376 z m 103.503289,-50.91224 c 0,-28.4487 0.21432,-51.83886 0.47626,-51.97814 0.26194,-0.13929 9.37979,-0.12161 20.2619403,0.0393 l 19.7856797,0.29254 3.01069,7.38454 c 1.6559,4.0615 3.38121,8.2418 3.83409,9.28956 0.45289,1.04776 1.82888,4.33391 3.05787,7.30256 l 2.23446,5.39754 0.0222,-14.76387 0.0222,-14.76387 h 19.36766 19.36766 v 51.75293 51.75292 h -18.6771 -18.67703 l -2.02319,-5.23879 c -1.11272,-2.88134 -3.03253,-7.95344 -4.26622,-11.27135 -2.07812,-5.58863 -3.39449,-9.12565 -7.26687,-19.52584 -0.81262,-2.18252 -1.68778,-3.96847 -1.94477,-3.96878 -0.25692,-3.1e-4 -0.54268,8.92919 -0.63501,19.84334 l -0.16776,19.84392 -18.8914097,0.1682 -18.8914103,0.1682 v -51.7249 z m 100.64833,51.2693 c -2.52783,-0.65225 -5.35227,-3.39231 -6.11256,-5.93004 -2.10548,-7.0275 5.21593,-13.5558 11.73388,-10.4628 5.84878,2.7754 6.57351,11.50555 1.26391,15.22452 -1.45346,1.01806 -5.08163,1.63371 -6.88523,1.16832 z" />
      <path
         style="fill:#ec5242;fill-opacity:1;stroke-width:3.66979"
         d="m -282.89554,-195.40271 c -0.69096,-0.43822 -0.93291,-1.66665 -0.88114,-4.4736 0.0742,-4.02243 0.11517,-4.12215 7.43096,-18.08053 1.85231,-3.53416 2.46647,-5.61618 2.99706,-10.16009 0.7335,-6.28171 2.56114,-10.75067 6.88187,-16.82764 1.70339,-2.39577 3.20745,-5.80511 4.78954,-10.85674 2.673,-8.5349 5.27717,-12.30986 8.96989,-13.00262 5.46922,-1.02603 7.47259,1.94051 5.17747,7.66673 -6.4785,16.16358 -6.93616,17.64718 -6.20084,20.10144 1.08141,3.60945 3.26442,4.98249 7.90988,4.97506 9.85006,-0.0157 18.62129,-8.81828 19.31871,-19.3877 0.30641,-4.64361 -1.10749,-8.05289 -5.13428,-12.38006 -5.16562,-5.55095 -9.67775,-8.72508 -14.25698,-10.02932 -12.67042,-3.60874 -16.6932,-4.55209 -19.41165,-4.55209 -3.46468,0 -14.35411,2.44613 -21.71803,4.8786 -4.71473,1.55738 -5.424,2.03594 -9.86327,6.65479 -4.99409,5.19614 -6.96127,6.08554 -8.2274,3.71976 -2.0509,-3.83214 2.39187,-7.78628 13.96314,-12.42743 20.04922,-8.04158 36.56093,-8.60049 56.02018,-1.89623 3.62002,1.2472 9.02382,5.16755 14.47399,10.5006 5.67036,5.54852 6.63268,7.91793 6.23798,15.35918 -0.45022,8.48804 -2.78699,11.08911 -16.21801,18.05232 -7.15241,3.70812 -7.85018,3.93224 -15.42877,4.9559 -8.38382,1.13242 -12.63401,2.64112 -14.09367,5.00289 -0.47506,0.76867 -3.41427,6.7811 -6.53155,13.36096 -5.94331,12.54494 -9.02598,17.01744 -12.82263,18.60379 -2.43804,1.01867 -2.18631,1.00066 -3.38245,0.24203 z"
         id="path4248" />
      <path
         id="path4244"
         style="fill:#ec5242;fill-opacity:1;stroke-width:3.66979"
         d="m -68.581271,-195.33722 c -3.59666,-1.64989 -5.92945,-4.20964 -8.17196,-8.96701 -1.86996,-3.96701 -1.94579,-4.46093 -1.94983,-12.70011 -0.004,-7.4161 0.17732,-8.95805 1.34134,-11.43009 1.88246,-3.99776 6.14094,-7.82267 16.08301,-14.44555 11.33234,-7.54901 14.38527,-9.04964 18.41075,-9.04964 2.93381,0 3.44687,0.23438 5.90737,2.69877 1.97503,1.97813 2.99079,3.71614 3.80402,6.5088 2.18032,7.48734 2.97439,12.14441 2.97753,17.46265 0.005,8.76112 -2.27577,12.50665 -13.2198,21.70834 -6.43137,5.40747 -8.00869,6.37927 -13.32014,8.20668 -4.3808,1.50721 -8.58673,1.50975 -11.86229,0.007 z m 21.22559,-12.11802 c 5.35603,-2.73244 8.76079,-9.77931 8.10712,-16.77937 -0.45071,-4.82653 -2.49793,-10.51453 -4.74594,-13.18614 -6.88767,-8.18554 -19.20754,-1.77057 -21.68466,11.29122 -1.45653,7.68029 2.87938,17.22029 8.84549,19.46211 2.18373,0.82056 7.13145,0.4093 9.47799,-0.78782 z m 8.4609,-47.0017 c -0.78581,-0.33373 -1.42876,-1.05412 -1.42876,-1.60087 0,-3.87985 9.84966,-15.61895 14.86239,-17.7134 7.37397,-3.08105 10.90784,0.98281 4.81204,5.53375 -3.38039,2.52368 -6.55481,6.40415 -8.00592,9.78656 -0.48403,1.12822 -1.58205,2.51128 -2.44005,3.07346 -1.92849,1.26359 -5.89078,1.73121 -7.7997,0.9205 z m -16.02122,86.50587 c -2.8771,-1.4455 -5.09297,-4.80213 -5.09172,-7.71298 0.002,-5.69797 4.45372,-9.56107 11.03794,-9.57948 3.03849,-0.009 8.16189,0.91061 9.18436,1.64762 0.3514,0.25329 -2.05258,4.09074 -2.42489,3.87083 -2.78248,-1.64355 -5.72316,-2.43728 -7.9321,-2.141 -7.09631,0.95182 -7.25348,10.22031 -0.19577,11.54435 2.65069,0.49727 7.40468,-0.67601 7.89277,-1.94792 0.54176,-1.41181 1.36003,-1.10143 2.40046,0.91052 l 0.9462,1.82976 -3.23709,1.34527 c -4.02719,1.67362 -9.51067,1.77519 -12.58016,0.23303 z m 22.0864,-8.09434 0.19138,-9.20857 h 2.40088 2.40089 l -0.28963,3.49253 -0.28962,3.49253 h 5.55481 5.55483 l -0.28962,-3.49253 -0.28963,-3.49253 2.59222,-4.2e-4 2.59228,-4.3e-4 v 9.20736 9.20736 l -2.54002,0.002 -2.54002,0.002 0.21514,-3.81119 0.21514,-3.81119 h -5.53024 -5.53027 l 0.27559,3.81003 0.27559,3.81004 -2.58054,0.001 -2.58054,0.001 0.19138,-9.20856 z m 27.1138503,-0.002 v -9.20736 l 2.54002,-4.7e-4 2.54002001,-4.8e-4 -0.20987,8.28808 c -0.14688,5.80051 0.0197,8.56432 0.55404,9.20847 0.64936,0.78246 0.30011,0.9203 -2.33021001,0.91975 l -3.094,-6.3e-4 z" />
      <path
         id="path4240"
         style="fill:#d3d3d3;fill-opacity:1;stroke-width:3.66979"
         d="m -26.789951,-193.37304 c -1.5631,-0.99391 -2.12595,-3.95358 -1.51504,-7.96659 0.32797,-2.15441 0.92573,-8.2034 1.32835,-13.44219 0.86129,-11.20666 2.58676,-19.3759 4.80035,-22.72701 2.47385,-3.74528 6.05572,-4.53752 6.86307,-1.51801 0.20364,0.76166 0.0419,6.03811 -0.36011,11.72545 -0.48223,6.82639 -0.51671,10.55433 -0.1016,10.96947 0.41516,0.41515 2.47379,-1.28099 6.0575003,-4.99089 3.97545,-4.11534 7.89763,-9.36567 14.65129,-19.61257 8.2787497,-12.56082 9.5053897,-14.12765 11.9865497,-15.31046 2.93772,-1.40044 5.65948,-1.29593 6.95667,0.26711 0.4064,0.48967 1.80481,6.87801 3.10765,14.19632 1.42514,8.00532 2.81568,14.01005 3.49056,15.07327 3.61826,5.70019 15.86002,11.85906 25.04753,12.60157 4.98523,0.40289 8.67989,1.26384 10.03403,2.3382 1.33479,1.05902 -1.05207,4.15037 -4.5507,5.89382 -2.57463,1.28299 -4.09165,1.57026 -8.26732,1.56553 -6.52627,-0.007 -16.81742,-2.51484 -20.35427,-4.95932 -3.39505,-2.3465 -8.56215,-9.34385 -11.89111,-16.10316 -1.4927,-3.03085 -2.90642,-5.53119 -3.14156,-5.55629 -0.23514,-0.0251 -1.27649,0.66872 -2.31415,1.54185 -1.03766,0.87313 -2.15,1.58751 -2.47182,1.58751 -0.32182,0 -1.25007,-1.18298 -2.06269,-2.62885 l -1.4774597,-2.62886 -4.65872,4.75012 c -2.99367,3.05237 -5.71428,6.6587 -7.61206,10.09016 -4.46129,8.06674 -6.58754,11.19484 -11.9697203,17.60966 -5.83691,6.95686 -8.95078,8.90293 -11.57522,7.23416 z m 41.71187,-43.59368 c 0,-0.46051 0.43771,-1.20052 0.97264,-1.64449 0.79324,-0.65837 1.65761,-0.59981 4.68767,0.31762 2.04325,0.61866 4.00879,1.01835 4.36782,0.88821 0.85211,-0.30892 -3.14379,-14.26207 -4.46187,-15.58018 -0.55544,-0.55545 -1.49143,-0.81643 -2.16168,-0.60274 -1.11761,0.35631 -7.73957,9.82218 -10.1051597,14.44489 l -1.09322,2.13641 1.38215,-1.23254 c 1.37847,-1.22929 1.38736,-1.22729 3.3756197,0.76095 1.96674,1.96676 3.03603,2.14704 3.03603,0.51187 z" />
      <path
         style="fill:#ec5242;fill-opacity:1;stroke-width:3.66979"
         d="m -214.02015,-192.4514 c -4.00996,-1.02151 -4.52973,-1.34946 -5.68765,-3.58864 -2.68282,-5.18799 -3.18059,-7.82121 -3.12269,-16.51926 0.0587,-8.82813 0.53281,-12.08388 3.18991,-21.90768 2.99414,-11.06995 6.55529,-17.46264 9.72783,-17.46264 2.0082,0 2.27527,1.59977 1.04801,6.27758 -3.82335,14.57307 -3.84947,14.76711 -2.97629,22.11512 1.22503,10.3089 1.6271,11.67681 4.09957,13.94749 5.44852,5.00386 14.17141,4.28592 20.11271,-1.65538 3.87597,-3.87598 5.99416,-8.42659 7.85869,-16.88324 0.84839,-3.8479 2.02859,-8.21097 2.62267,-9.69572 1.73903,-4.34627 5.42855,-6.49749 7.29227,-4.25184 0.64359,0.77548 0.63775,2.69332 -0.0299,9.80948 -1.06564,11.3587 -0.37141,16.01627 3.21416,21.56385 3.43913,5.321 4.5636,5.7764 12.23378,4.95445 5.82234,-0.62394 6.32979,-0.58465 7.93756,0.61457 2.47077,1.84292 2.47847,3.21178 0.0301,5.34691 -4.37093,3.81169 -9.84145,5.6422 -16.86188,5.6422 -6.2327,0 -10.08905,-1.66072 -15.10314,-6.50409 -2.68933,-2.59776 -4.98253,-4.291 -5.81144,-4.291 -0.82154,0 -3.53384,1.97731 -6.78114,4.94354 -2.97658,2.71894 -6.76174,5.61765 -8.41148,6.44157 -3.62414,1.80998 -9.93258,2.28706 -14.5817,1.10273 z"
         id="path4238" />
      <path
         style="fill:#ec5242;fill-opacity:1;stroke-width:3.66979"
         d="m -128.90677,-189.02712 c -5.06628,-0.64252 -7.85688,-1.91173 -10.28583,-4.67814 -3.83823,-4.37151 -3.69781,-13.30634 0.40557,-25.80652 2.16181,-6.58555 3.1694,-8.65236 6.03662,-12.3826 7.85492,-10.21917 13.40366,-15.15734 19.89038,-17.70164 6.72877,-2.63926 13.845869,0.26086 15.933069,6.49247 0.9945,2.96926 0.92206,3.92924 -0.60435,8.00895 -2.999159,8.01599 -5.603689,8.49076 -10.738049,1.95743 -4.91263,-6.25121 -8.50213,-7.29223 -13.87894,-4.02512 -4.0285,2.44784 -9.1406,12.5465 -10.37697,20.4991 -1.28824,8.28632 1.13186,12.86435 8.22744,15.56362 5.21865,1.98526 19.86367,1.9909 29.046339,0.0112 14.54289,-3.13533 18.45921,-3.1481 17.65101,-0.0575 -0.83992,3.21185 -9.28772,6.26328 -27.176089,9.81628 -12.09164,2.40166 -18.51541,3.01462 -24.1302,2.30253 z"
         id="path4236" />
      <path
         id="path3900"
         style="fill:#d3d3d3;fill-opacity:1;stroke-width:3.66979"
         d="m -495.12595,-172.87043 c -10.16042,-2.5598 -18.67236,-9.81692 -23.92012,-20.39383 -9.95946,-20.07342 -9.11979,-50.00257 1.92592,-68.64757 3.14545,-5.30947 9.68302,-11.71964 14.34966,-14.07002 10.25745,-5.16622 21.95048,-5.25823 32.43984,-0.25527 5.40168,2.57637 13.12171,10.61261 16.12848,16.78912 11.17329,22.95216 8.33758,56.38305 -6.32029,74.51158 -3.72447,4.60635 -10.75179,9.78228 -15.45519,11.38345 -4.56502,1.55406 -14.31028,1.90143 -19.1483,0.68254 z m 11.21106,-32.96359 c 4.44966,-1.8592 6.89241,-9.17274 6.91231,-20.69539 0.0179,-10.3725 -2.12131,-17.27934 -6.10398,-19.7077 -7.99729,-4.87621 -14.68541,6.55535 -13.57347,23.20022 0.65065,9.73962 3.09267,15.20033 7.69381,17.20445 2.45544,1.06953 2.50782,1.06952 5.07133,-0.001 z m 45.12556,31.43863 c -3.4447,-1.59828 -6.24905,-4.70655 -8.36466,-9.27117 -1.51234,-3.26301 -1.76799,-4.63058 -1.78064,-9.52508 -0.0129,-4.9899 0.2199,-6.22331 1.83479,-9.7208 6.28344,-13.60849 21.16422,-13.76724 27.79582,-0.29655 1.88851,3.83611 2.07447,4.73698 2.05899,9.97468 -0.0146,4.94876 -0.27061,6.31638 -1.82192,9.73399 -1.93349,4.2596 -5.44527,7.94488 -8.97702,9.42054 -2.94648,1.23112 -7.71352,1.0911 -10.74536,-0.31561 z m -149.54373,-0.81582 c 0,-0.41372 2.97431,-7.91472 6.60957,-16.66888 16.303,-39.25966 23.23568,-56.21857 23.23568,-56.83975 0,-0.45234 -5.30794,-0.66972 -16.35139,-0.66964 l -16.35138,1.1e-4 0.1181,-14.12898 0.11811,-14.12898 34.64843,-0.16418 c 19.05664,-0.0903 34.64843,0.0646 34.64843,0.34416 0,0.27958 -1.1768,3.78249 -2.61511,7.78424 -6.83455,19.01546 -16.02671,44.52214 -17.38259,48.23374 -0.82931,2.27014 -4.54699,12.55723 -8.2615,22.86018 -3.71452,10.30296 -7.20141,19.94711 -7.74866,21.43143 l -0.99499,2.69877 h -14.83635 c -11.0088,0 -14.83635,-0.19405 -14.83635,-0.75222 z m 254.00209,-87.39939 c -2.47385,-1.121 -4.01601,-2.53089 -5.13284,-4.6926 -2.27908,-4.4113 -1.13996,-9.2029 2.92491,-12.30332 1.96473,-1.49858 3.00343,-1.81269 6.05136,-1.82997 4.12823,-0.0234 6.24268,1.1277 8.69793,4.7352 2.85191,4.19034 0.95553,11.18322 -3.66085,13.49934 -2.19235,1.09994 -7.04505,1.42308 -8.88051,0.59135 z m 7.68491,-2.83359 c 1.37191,-0.9216 2.49068,-2.40517 3.0721,-4.07381 0.82918,-2.37972 0.80598,-2.86483 -0.24889,-5.20413 -1.41298,-3.1334 -3.36601,-4.51272 -6.38978,-4.51272 -3.50341,0 -5.76238,1.49673 -6.94919,4.60432 -1.38644,3.63035 -0.34419,7.09087 2.76601,9.18383 2.73283,1.83901 5.01483,1.83976 7.74975,0.003 z m -7.68491,-6.20228 v -5.11174 l 3.58556,0.19045 c 4.14803,0.22031 5.56,1.47624 4.16712,3.7066 -0.44585,0.71392 -0.63547,1.58147 -0.42137,1.92789 0.2141,0.34642 0.63247,1.47781 0.92969,2.51419 0.48985,1.70798 0.40072,1.88434 -0.95231,1.88434 -1.14227,0 -1.59097,-0.44726 -1.91114,-1.90502 -0.28776,-1.31017 -0.79923,-1.90501 -1.63797,-1.90501 -0.93173,0 -1.21955,0.4496 -1.21955,1.90501 0,1.48168 -0.28223,1.90502 -1.27002,1.90502 -1.16483,0 -1.27001,-0.42334 -1.27001,-5.11173 z m 4.99678,-1.4555 c 0.83892,-1.01084 0.32045,-1.68784 -1.29258,-1.68784 -0.74084,0 -1.16417,0.46182 -1.16417,1.27001 0,1.44798 1.40367,1.68671 2.45675,0.41783 z m -55.45529,100.81085 c -9.94329,-1.54515 -18.86957,-7.00691 -23.01656,-14.08323 -2.37117,-4.04608 -4.51601,-11.61931 -5.00799,-17.68274 l -0.43224,-5.32718 h 14.37495 14.37494 v 2.2853 c 0,4.96603 3.60957,9.14479 7.89918,9.14479 7.97883,0 11.02025,-12.87754 4.04538,-17.12837 -1.15609,-0.70458 -3.4593,-1.46203 -5.11825,-1.68323 l -3.01628,-0.40217 v -11.03079 -11.03078 h 1.56597 c 2.22392,0 5.80786,-1.84501 6.64916,-3.42298 0.74357,-1.39466 0.98923,-3.32329 0.79127,-6.212 -0.16102,-2.34956 -3.54808,-5.60514 -5.8315,-5.60514 -2.66912,0 -5.59533,2.77273 -6.43174,6.09441 l -0.70396,2.79566 h -13.0162 -13.01619 l 0.45122,-4.21346 c 1.55676,-14.53684 8.8203,-24.20824 21.53516,-28.67405 3.88538,-1.36465 5.66433,-1.5915 12.76935,-1.62832 8.66417,-0.0449 12.90114,0.76938 18.39604,3.53547 6.36076,3.20196 11.29594,9.04645 13.31666,15.77027 1.16307,3.87007 1.38938,13.6022 0.39553,17.00986 -1.49318,5.11975 -5.92603,10.42595 -10.55336,12.63257 l -2.1099,1.00613 4.54843,2.2821 c 5.35104,2.68479 8.6099,6.49615 10.60823,12.40672 1.75182,5.18146 1.75902,14.53103 0.0156,20.17578 -3.62676,11.74208 -14.00048,20.50293 -27.22599,22.99298 -6.25462,1.17761 -8.63616,1.17647 -16.25684,-0.008 z" />
    </g>
  </g>
</svg>
