<?xml version="1.0" encoding="UTF-8" standalone="no"?>
<svg
   viewBox="0 0 300 300"
   version="1.1"
   id="svg31"
   sodipodi:docname="merrel.svg"
   width="300"
   height="300"
   inkscape:version="1.1.1 (3bf5ae0d25, 2021-09-20)"
   inkscape:export-filename="C:\Users\suitedoalex\sites\brave-logo-0.png"
   inkscape:export-xdpi="561.73712"
   inkscape:export-ydpi="561.73712"
   xmlns:inkscape="http://www.inkscape.org/namespaces/inkscape"
   xmlns:sodipodi="http://sodipodi.sourceforge.net/DTD/sodipodi-0.dtd"
   xmlns="http://www.w3.org/2000/svg"
   xmlns:svg="http://www.w3.org/2000/svg"
   xmlns:rdf="http://www.w3.org/1999/02/22-rdf-syntax-ns#"
   xmlns:cc="http://creativecommons.org/ns#"
   xmlns:dc="http://purl.org/dc/elements/1.1/">
  <metadata
     id="metadata35">
    <rdf:RDF>
      <cc:Work
         rdf:about="">
        <dc:format>image/svg+xml</dc:format>
        <dc:type
           rdf:resource="http://purl.org/dc/dcmitype/StillImage" />
      </cc:Work>
    </rdf:RDF>
  </metadata>
  <sodipodi:namedview
     pagecolor="#ffffff"
     bordercolor="#666666"
     borderopacity="1"
     objecttolerance="10"
     gridtolerance="10"
     guidetolerance="10"
     inkscape:pageopacity="0"
     inkscape:pageshadow="2"
     inkscape:window-width="1920"
     inkscape:window-height="991"
     id="namedview33"
     showgrid="false"
     inkscape:zoom="1.0425714"
     inkscape:cx="34.53001"
     inkscape:cy="290.148"
     inkscape:window-x="1911"
     inkscape:window-y="-9"
     inkscape:window-maximized="1"
     inkscape:current-layer="g29"
     inkscape:pagecheckerboard="0"
     width="500px" />
  <defs
     id="defs17">
    <linearGradient
       x1="0.0010835459"
       y1="61.705673"
       x2="121.69413"
       y2="61.705673"
       id="a"
       gradientTransform="scale(0.92289582,1.0835459)"
       gradientUnits="userSpaceOnUse">
      <stop
         stop-color="#F50"
         offset="0%"
         id="stop2" />
      <stop
         stop-color="#F50"
         offset="40.988%"
         id="stop4" />
      <stop
         stop-color="#FF2000"
         offset="58.198%"
         id="stop6" />
      <stop
         stop-color="#FF2000"
         offset="100%"
         id="stop8" />
    </linearGradient>
    <linearGradient
       x1="5.8308024"
       y1="23.863535"
       x2="51.882446"
       y2="23.863535"
       id="b"
       gradientTransform="scale(1.980747,0.50486004)"
       gradientUnits="userSpaceOnUse">
      <stop
         stop-color="#FF452A"
         offset="0%"
         id="stop11" />
      <stop
         stop-color="#FF2000"
         offset="100%"
         id="stop13" />
    </linearGradient>
    <path
       d="M 87.884,13.077 76.372,0 H 35.94 L 24.428,13.077 c 0,0 -10.108,-2.811 -14.881,1.968 0,0 13.477,-1.218 18.11,6.325 0,0 12.495,2.39 14.18,2.39 1.684,0 5.334,-1.406 8.704,-2.53 3.369,-1.125 5.615,-1.133 5.615,-1.133 0,0 2.246,0.008 5.616,1.133 3.37,1.124 7.02,2.53 8.704,2.53 1.685,0 14.18,-2.39 14.18,-2.39 4.632,-7.543 18.11,-6.325 18.11,-6.325 -4.773,-4.78 -14.882,-1.968 -14.882,-1.968"
       id="c"
       inkscape:connector-curvature="0" />
  </defs>
  <g
     id="g29"
     style="fill:none;fill-rule:evenodd"
     transform="matrix(1.5747902,0,0,1.5747902,16.630237,763.27292)">
    <path
       style="fill:#ec5242;fill-opacity:1;stroke-width:0.999996"
       d="m -4.0078174,-333.65286 8.7e-5,-9.97868 4.00058003,0.0304 4.00058797,0.0304 1.216583,2.91259 c 0.669128,1.60193 2.031802,4.87844 3.028169,7.28114 0.996368,2.4027 1.8560354,4.36681 1.9103684,4.36471 0.09748,-0.004 5.074626,-13.311 5.278701,-14.11346 0.0579,-0.22763 0.199061,-0.41944 0.31372,-0.42625 1.114051,-0.0662 8.60847,0.01 8.735915,0.0885 0.09205,0.0569 0.148758,0.58038 0.126006,1.1633 -0.02272,0.58292 -0.05464,5.01223 -0.07083,9.84292 l -0.02947,8.78307 h -3.126957 -3.126962 l -0.01078,-7.86337 -0.01072,-7.86339 -0.542446,1.37955 c -0.298343,0.75874 -0.703639,1.83478 -0.900667,2.3912 -0.197027,0.55642 -0.576835,1.59107 -0.844016,2.29923 -0.26718,0.70817 -0.768352,2.07391 -1.113712,3.03499 -0.34536,0.96108 -0.703995,1.91296 -0.796964,2.11529 -0.09297,0.20234 -0.340479,0.84383 -0.550012,1.42553 -0.209527,0.5817 -0.552453,1.51289 -0.762056,2.06931 l -0.381089,1.01166 H 8.9816836 5.6271486 l -2.810874,-7.58747 c -1.545973,-4.17311 -2.88612797,-7.6661 -2.97812297,-7.76221 -0.100512,-0.105 -0.167264,2.92313 -0.167264,7.58747 v 7.76221 h -1.83938703 -1.839381 z m 32.8851004,0.092 c -0.02866,-5.43769 -0.0406,-9.91204 -0.0265,-9.943 0.04089,-0.0898 19.560258,-0.0595 19.707117,0.0306 0.07294,0.0448 0.105626,0.75173 0.07263,1.57103 l -0.05999,1.48965 h -6.678303 -6.678304 l -0.110903,0.41387 c -0.143847,0.53674 -0.143847,3.60186 0,4.13862 l 0.110903,0.41385 h 5.772616 5.772615 v 1.47152 1.47151 h -5.890828 -5.890823 l 0.05079,2.80506 0.05079,2.80507 6.851718,0.0482 6.851711,0.0482 v 1.56124 1.56124 h -9.926543 -9.926548 z m 23.076558,0 0.04759,-9.88671 8.185274,-0.092 c 4.501897,-0.0506 8.652516,-0.04 9.223596,0.0237 2.150131,0.23943 4.194613,1.66048 5.133252,3.56795 0.605277,1.23001 0.615913,3.41914 0.02307,4.75161 -0.786648,1.76815 -2.266911,3.01881 -4.153205,3.50901 -0.597018,0.15515 -1.123865,0.32048 -1.170772,0.36738 -0.04689,0.0469 0.652429,1.02075 1.55408,2.16409 2.450251,3.10708 4.105046,5.27818 4.105046,5.38585 0,0.0527 -1.56803,0.0958 -3.484513,0.0958 h -3.484514 l -1.064954,-1.42553 c -0.585724,-0.78404 -1.149081,-1.51884 -1.251905,-1.6329 -0.102824,-0.11406 -0.31111,-0.3906 -0.462862,-0.61454 -0.151752,-0.22392 -0.716058,-0.95832 -1.254019,-1.63199 -0.537955,-0.67367 -1.100182,-1.45516 -1.249383,-1.73664 l -0.271281,-0.51179 -2.061507,0.052 -2.061514,0.052 -0.0498,3.72475 -0.0498,3.72476 h -3.12475 -3.12475 z m 15.300071,-1.40206 c 1.421358,-1.08412 1.825927,-2.73094 0.979482,-3.98699 -0.860803,-1.27734 -1.215477,-1.36362 -5.885417,-1.43174 l -4.184601,-0.061 v 2.94458 c 0,2.64843 0.03239,2.95339 0.321893,3.03205 0.177037,0.0481 2.067268,0.0743 4.200502,0.0583 l 3.878615,-0.0292 z m 11.326652,1.35111 v -9.93765 l 9.150951,0.051 9.15095,0.051 1.157241,0.53437 c 3.830894,1.76897 4.730174,6.53361 1.807351,9.57586 -0.895384,0.93196 -1.270375,1.14399 -2.917499,1.64956 l -1.240471,0.38076 1.580595,2.02302 c 0.86933,1.11267 1.776089,2.27134 2.01502,2.57484 1.494828,1.89882 2.104258,2.73095 2.104258,2.87319 0,0.089 -1.551986,0.16058 -3.448851,0.15911 l -3.448849,-0.002 -0.735752,-0.97514 c -0.404668,-0.53633 -1.680372,-2.23195 -2.834904,-3.76805 l -2.099148,-2.79289 h -1.9665 -1.966495 l -0.118958,1.40729 c -0.06543,0.77401 -0.118965,2.47085 -0.118965,3.77074 v 2.36345 h -3.034984 -3.03499 z m 15.258826,-1.3474 c 0.792152,-0.52422 1.467729,-1.65588 1.475557,-2.4717 0.0058,-0.59698 -0.634028,-1.7745 -1.210444,-2.2279 -0.828615,-0.65179 -1.71394,-0.76379 -5.625191,-0.71163 l -3.736801,0.0499 -0.05056,2.88266 c -0.04613,2.62979 -0.02196,2.89042 0.275906,2.97106 0.179571,0.0486 2.075272,0.0728 4.212664,0.0537 l 3.886176,-0.0347 z m 11.22834,1.35236 v -9.93269 h 9.65678 c 5.31123,0 9.71886,-5.8e-4 9.79474,-0.001 0.0759,-5.8e-4 0.16186,0.70295 0.19109,1.56348 l 0.0531,1.56458 h -6.72092 -6.72092 v 2.48317 2.48317 h 5.79407 5.79406 v 1.47151 1.47151 h -5.77287 -5.77287 l -0.10195,0.96568 c -0.084,0.79612 -0.0624,3.617 0.0345,4.5065 0.0196,0.17934 1.5222,0.22992 6.83078,0.22992 h 6.80573 v 1.56348 1.56348 h -9.93268 -9.93269 z m 22.99233,0 c 0,-5.46298 0.0621,-9.93456 0.13795,-9.93685 0.32811,-0.01 5.15132,-0.0149 5.61014,-0.006 l 0.50582,0.01 v 8.36921 8.36921 h 6.41145 6.41144 l 0.11829,1.27276 c 0.0651,0.70002 0.0681,1.40359 0.007,1.56348 -0.0997,0.25982 -1.12576,0.29071 -9.65668,0.29071 h -9.54513 z m 21.93311,-0.046 0.0476,-9.97867 2.94302,0.0365 c 1.61866,0.02 2.9844,0.0407 3.03498,0.0459 0.0506,0.005 0.0651,3.1755 0.0322,7.04517 -0.0329,3.86967 -0.005,7.63587 0.0617,8.36932 l 0.12148,1.33356 h 6.42216 6.42216 v 1.56348 1.56347 h -9.56639 -9.5664 z m 23.0399,9.67304 c -1.41719,-0.74713 -2.1173,-1.909 -2.11125,-3.50377 0.009,-2.42158 1.51737,-3.91602 3.95205,-3.91602 2.27512,0 3.76933,1.56897 3.76933,3.95791 0,1.54528 -0.7119,2.72517 -2.06199,3.41754 -0.85715,0.43957 -2.75347,0.46327 -3.54814,0.0443 z m 3.34102,-0.89791 c 1.99138,-1.16702 2.04686,-3.94219 0.10454,-5.22873 -0.97741,-0.64742 -2.09746,-0.74069 -3.04084,-0.25322 -0.70136,0.36241 -0.95241,0.64959 -1.42243,1.62718 -0.48628,1.0114 -0.44936,1.77144 0.13285,2.73534 0.95182,1.57578 2.67037,2.03103 4.22588,1.11943 z m -3.06511,-2.68428 c 0,-2.45414 -0.13921,-2.25951 1.56348,-2.18606 1.09678,0.0473 1.56347,0.42185 1.56347,1.25479 0,0.37982 -0.12995,0.87611 -0.28876,1.10286 -0.26732,0.38164 -0.25874,0.46085 0.11529,1.06605 0.27624,0.44696 0.34435,0.7135 0.21532,0.84253 -0.33048,0.33049 -0.95565,-0.0348 -1.33624,-0.78086 -0.49417,-0.96866 -0.87562,-0.94477 -0.94827,0.0594 -0.0481,0.66374 -0.11903,0.78489 -0.47043,0.80261 -0.40711,0.0206 -0.41386,-0.0147 -0.41386,-2.16128 z m 2.11529,-0.80261 c 0,-0.2806 -0.14183,-0.38156 -0.5978,-0.42552 -0.53734,-0.0518 -0.5978,-0.009 -0.5978,0.42552 0,0.43429 0.0605,0.47732 0.5978,0.42551 0.45597,-0.044 0.5978,-0.14492 0.5978,-0.42551 z M 74.441944,-356.24708 c -5.898686,-0.7017 -10.654652,-1.97303 -15.471551,-4.13575 -2.084468,-0.93589 -5.191126,-2.57314 -5.405488,-2.84876 -0.05056,-0.065 -0.298902,-0.22421 -0.551812,-0.35371 -0.52132,-0.26692 -3.721971,-2.39682 -3.862714,-2.57047 -0.05056,-0.0624 -0.754146,-0.64609 -1.563476,-1.29707 -2.351643,-1.89154 -5.379015,-4.98807 -7.461707,-7.63218 -2.30889,-2.93128 -3.811252,-5.32591 -5.596953,-8.92103 -2.538332,-5.11039 -3.999822,-10.06696 -4.792953,-16.25505 -0.389546,-3.03932 -0.290118,-10.24672 0.181755,-13.17514 1.59303,-9.88619 5.480132,-18.32571 11.775943,-25.56747 1.519283,-1.74756 4.95622,-5.03382 6.5377,-6.2511 0.455244,-0.3504 0.869109,-0.68953 0.919691,-0.75361 0.16837,-0.21331 4.683274,-3.20656 5.335743,-3.53746 0.353247,-0.17914 0.931963,-0.50166 1.286049,-0.71669 1.111791,-0.67522 5.279092,-2.49741 7.232009,-3.16227 5.276476,-1.79634 9.41237,-2.50864 15.296552,-2.63444 7.229941,-0.15455 12.258563,0.66136 18.765666,3.04483 8.683822,3.18077 16.720272,9.17355 22.413192,16.7135 1.38488,1.8342 3.24625,4.67511 3.24625,4.95458 0,0.13861 0.0666,0.25202 0.14798,0.25202 0.12779,0 2.22352,4.18765 3.03774,6.06997 1.51525,3.50301 2.99006,9.48162 3.42227,13.87334 0.25065,2.54681 0.25462,7.58948 0.008,10.06519 -0.21101,2.11775 -0.96132,6.32448 -1.406,7.88286 -0.51186,1.79386 -1.66691,5.21971 -2.10956,6.25693 -0.60233,1.41133 -2.74315,5.77178 -2.88836,5.88303 -0.066,0.0506 -0.32311,0.48123 -0.5713,0.957 -0.2482,0.47577 -0.59963,1.05518 -0.78096,1.28757 -0.18132,0.2324 -0.81938,1.11836 -1.41792,1.96882 -4.06608,5.7775 -9.90648,10.97988 -16.36918,14.58096 -1.05716,0.58906 -1.94079,1.07102 -1.96362,1.07102 -0.0228,0 -0.73259,0.32036 -1.57726,0.71191 -4.76089,2.2069 -10.59537,3.76045 -15.914629,4.23756 -2.548653,0.2286 -7.983586,0.22921 -9.901036,0.001 z M 56.14005,-373.29275 c 1.365743,-0.40598 4.345549,-1.29559 6.621792,-1.97692 2.276242,-0.68133 4.924953,-1.46589 5.886034,-1.74347 0.961082,-0.27757 1.974702,-0.59661 2.25249,-0.70897 l 0.50508,-0.20428 0.04671,-21.66362 0.04677,-21.66362 0.608778,1.56348 c 0.334823,0.85991 0.769377,1.91436 0.965677,2.34321 0.196293,0.42885 0.357394,0.84272 0.358,0.91969 5.76e-4,0.077 0.585467,1.67125 1.299702,3.54283 0.714229,1.87157 1.544528,4.06505 1.845096,4.87438 0.300579,0.80933 0.656902,1.71982 0.791832,2.02332 0.134935,0.3035 0.46959,1.17261 0.74369,1.93136 0.2741,0.75874 0.571506,1.54508 0.660898,1.74741 0.0894,0.20233 0.752596,1.94056 1.473774,3.86271 0.721178,1.92216 1.521759,4.03286 1.779067,4.69044 0.257307,0.65758 0.614766,1.60946 0.794354,2.1153 0.179588,0.50583 0.713017,1.91296 1.185403,3.12695 0.47238,1.214 0.928941,2.4142 1.014576,2.66711 0.486587,1.43715 1.129929,3.03061 1.312272,3.25033 0.121883,0.14686 0.372387,0.20723 0.597711,0.14405 0.213343,-0.0598 1.050077,-0.30873 1.859407,-0.55312 0.809329,-0.24441 2.175073,-0.65005 3.034984,-0.90144 0.859917,-0.25138 2.267045,-0.67393 3.126957,-0.93899 0.859911,-0.26506 1.811801,-0.54902 2.115293,-0.63103 0.303504,-0.082 1.040927,-0.30334 1.638737,-0.49184 1.067068,-0.33647 1.093413,-0.36115 1.443116,-1.35192 0.19591,-0.55507 0.50525,-1.54723 0.68741,-2.20481 0.18217,-0.65758 0.68086,-2.31303 1.1082,-3.67878 0.42734,-1.36574 1.17087,-3.80753 1.65229,-5.42618 0.48142,-1.61866 1.18642,-3.93629 1.56669,-5.15029 0.38025,-1.21399 0.95881,-3.11776 1.28567,-4.23058 0.71349,-2.42913 1.51237,-5.02283 2.57775,-8.36922 l 0.79057,-2.48317 0.0211,1.42553 c 0.0116,0.78404 0.0231,7.24652 0.0255,14.36107 0.002,7.11455 0.0489,13.10584 0.10337,13.31396 0.0956,0.36541 0.13476,0.36948 1.14079,0.1185 0.57302,-0.14295 1.37293,-0.37182 1.7776,-0.5086 0.40466,-0.13677 1.35655,-0.43022 2.1153,-0.6521 0.75874,-0.22188 1.89723,-0.56958 2.52998,-0.77265 l 1.15046,-0.36924 -0.0468,-19.51672 -0.0468,-19.51672 -2.75908,-0.40864 c -1.5175,-0.22475 -4.86978,-0.74089 -7.44952,-1.14698 -6.23556,-0.98157 -5.73967,-0.94807 -5.9021,-0.39872 -0.0748,0.25292 -0.52304,1.74282 -0.99614,3.3109 -0.4731,1.56808 -0.90489,3.01659 -0.95953,3.21893 -0.28385,1.05112 -1.006101,3.56457 -1.162827,4.04665 -0.09867,0.30349 -0.724498,2.45558 -1.390725,4.78241 -3.446321,12.03641 -3.628781,12.62968 -3.813851,12.40053 -0.03402,-0.0422 -0.541397,-1.44239 -1.127453,-3.11164 -2.426183,-6.9104 -3.047641,-8.66728 -3.87134,-10.94435 -0.475741,-1.31516 -1.340546,-3.75694 -1.92179,-5.42619 -0.581239,-1.66924 -1.560353,-4.44211 -2.175801,-6.16194 -0.615447,-1.71983 -1.321277,-3.70636 -1.568508,-4.41453 l -0.449512,-1.28757 -1.723411,-0.30585 c -0.947877,-0.16821 -3.171929,-0.52645 -4.94234,-0.79608 -1.770411,-0.26963 -3.674173,-0.56585 -4.230587,-0.65826 -1.929898,-0.32053 -9.484655,-1.49235 -11.772075,-1.82597 -1.264579,-0.18444 -2.837258,-0.42957 -3.494836,-0.54475 -2.993587,-0.52434 -6.628158,-1.04366 -6.712675,-0.95914 -0.122669,0.12266 -0.121155,69.83902 0.0012,69.96169 0.09166,0.0917 0.69884,-0.0754 5.975404,-1.64385 z m 76.42651,-47.71727 c -2.36759,-0.88631 -3.27792,-4.14215 -1.71403,-6.13031 1.13488,-1.44277 3.25421,-1.88084 4.99108,-1.03166 1.32783,0.6492 1.85959,1.56528 1.92606,3.3181 0.0634,1.67211 -0.33252,2.52648 -1.57566,3.40019 -0.63468,0.44607 -1.00217,0.56044 -1.9298,0.60062 -0.63021,0.0273 -1.39415,-0.0433 -1.69765,-0.15694 z m 2.89671,-0.89921 c 0.75854,-0.34645 1.60979,-1.78727 1.60979,-2.72471 0,-0.97956 -0.55426,-2.07533 -1.32939,-2.62819 -0.4824,-0.34407 -0.83946,-0.42935 -1.79757,-0.42935 -1.01668,0 -1.29296,0.0745 -1.84612,0.49772 -0.89811,0.68716 -1.34358,1.95673 -1.08262,3.08539 0.22006,0.95179 0.87493,1.8887 1.59787,2.28607 0.57833,0.31787 2.06083,0.27262 2.84804,-0.0869 z m -2.98868,-2.92976 v -2.20582 l 1.17993,0.0757 c 1.33637,0.0857 1.86929,0.30643 2.04025,0.84507 0.16331,0.51455 -0.0642,1.43306 -0.40176,1.62196 -0.24452,0.13684 -0.23112,0.25198 0.10635,0.91346 0.48839,0.95733 0.48865,0.95548 -0.13775,0.95548 -0.43328,0 -0.58127,-0.12725 -0.85566,-0.73576 -0.21343,-0.47329 -0.45304,-0.73575 -0.67172,-0.73575 -0.27398,0 -0.33995,0.14278 -0.33995,0.73575 0,0.66218 -0.046,0.73576 -0.45984,0.73576 h -0.45985 z m 2.17781,-0.62319 c 0.072,-0.37917 -0.24752,-0.65862 -0.75806,-0.66301 -0.37628,-0.003 -0.59069,0.41538 -0.42881,0.83723 0.15838,0.41274 1.10172,0.27427 1.18687,-0.17422 z"
       id="path3398" />
  </g>
</svg>
