<?xml version="1.0" encoding="UTF-8" standalone="no"?>
<svg
   viewBox="0 0 113.38583 113.38583"
   version="1.1"
   id="svg4"
   sodipodi:docname="ski.svg"
   width="30mm"
   height="30mm"
   inkscape:version="1.1.1 (3bf5ae0d25, 2021-09-20)"
   xmlns:inkscape="http://www.inkscape.org/namespaces/inkscape"
   xmlns:sodipodi="http://sodipodi.sourceforge.net/DTD/sodipodi-0.dtd"
   xmlns="http://www.w3.org/2000/svg"
   xmlns:svg="http://www.w3.org/2000/svg">
  <defs
     id="defs8" />
  <sodipodi:namedview
     id="namedview6"
     pagecolor="#ffffff"
     bordercolor="#666666"
     borderopacity="1.0"
     inkscape:pageshadow="2"
     inkscape:pageopacity="0.0"
     inkscape:pagecheckerboard="0"
     showgrid="false"
     units="mm"
     inkscape:zoom="2.215233"
     inkscape:cx="-6.3198771"
     inkscape:cy="19.636761"
     inkscape:window-width="1920"
     inkscape:window-height="991"
     inkscape:window-x="-9"
     inkscape:window-y="-9"
     inkscape:window-maximized="1"
     inkscape:current-layer="svg4"
     inkscape:document-units="mm" />
  <!--! Font Awesome Pro 6.4.0 by @fontawesome - https://fontawesome.com License - https://fontawesome.com/license (Commercial License) Copyright 2023 Fonticons, Inc. -->
  <g
     id="g2699"
     transform="translate(6)">
    <path
       d="M 62.7866,12.209433 C 62.7835,6.8702236 67.110948,2.54032 72.450155,2.54032 c 5.339206,0 9.666626,4.3299036 9.663554,9.669113 0.0031,5.339209 -4.324348,9.669113 -9.663554,9.669113 -5.339207,0 -9.666627,-4.329904 -9.663555,-9.669113 z M 42.291817,61.352621 27.172383,46.233186 C 24.233048,43.29386 23.065367,39.408303 23.468019,35.744205 l 21.904052,10.468849 7.912034,7.912041 c 3.261456,3.261447 3.764761,8.354941 1.207944,12.200232 L 44.486248,81.263569 c 0,0 -20.971988,3.542603 -2.194431,-19.910948 z m -32.21185,-45.599885 3.643965,1.731382 1.751524,-3.503037 c 0.805294,-1.590455 2.738002,-2.234697 4.328465,-1.449536 1.590462,0.78517 2.234695,2.738009 1.449534,4.328473 l -1.711258,3.402375 11.012428,5.274685 c 0.301989,-0.140936 0.624101,-0.281855 0.946222,-0.422774 l 16.790428,-6.724229 c 6.88528,-2.758134 14.656385,0.845567 17.011876,7.891908 l 3.44264,10.307789 10.488982,5.254552 c 3.180916,1.590464 4.469396,5.455889 2.878936,8.636805 -1.590461,3.180918 -5.455884,4.469392 -8.636802,2.87893 L 61.779981,47.521661 C 59.484886,46.374115 57.753496,44.360877 56.92807,41.924856 l -1.167679,-3.482907 -5.496144,2.436022 -1.369004,0.603977 -1.348874,-0.644242 -30.903233,-14.797314 -1.852186,3.704364 c -0.805294,1.590455 -2.738002,2.234697 -4.328465,1.449526 C 8.8720225,30.409121 8.2277895,28.456281 9.0129485,26.865818 L 10.824872,23.241984 7.2815675,21.550868 c -1.610596,-0.765038 -2.274961,-2.697745 -1.509932,-4.288207 0.765027,-1.590455 2.697744,-2.274962 4.2881985,-1.509925 z"
       id="path2"
       style="fill:#ec5242;fill-opacity:1;stroke-width:1"
       sodipodi:nodetypes="cscscccccccccccccccccccccscccccccccccccscc" />
    <path
       style="fill:#d3d3d3;fill-opacity:1;stroke-width:1"
       d="m -1.818285,62.661229 c 1.228073,-2.375614 4.147273,-3.28158 6.522903,-2.053503 l 39.78163,20.655843 c 6.78043,2.929312 8.95153,5.314968 11.4956,5.979326 l 25.9104,13.448445 c 2.738,1.42941 5.99945,1.44954 8.77772,0.0604 l 3.06013,-1.53007 c 2.39574,-1.18781 5.29482,-0.22145 6.482632,2.15417 1.18781,2.37562 0.22145,5.29483 -2.154162,6.48264 l -3.06013,1.53006 c -5.53641,2.75814 -12.05931,2.71787 -17.55546,-0.14094 L 0.235228,69.184133 c -2.355493,-1.228078 -3.281583,-4.147279 -2.053513,-6.522904 z"
       id="path1800"
       sodipodi:nodetypes="sccccscsscccs" />
  </g>
</svg>
