<?xml version="1.0" encoding="UTF-8" standalone="no"?>
<svg
   viewBox="0 0 18.897638 18.897638"
   version="1.1"
   id="svg4"
   sodipodi:docname="twitterWhite.svg"
   width="5mm"
   height="5mm"
   inkscape:version="1.1.1 (3bf5ae0d25, 2021-09-20)"
   xmlns:inkscape="http://www.inkscape.org/namespaces/inkscape"
   xmlns:sodipodi="http://sodipodi.sourceforge.net/DTD/sodipodi-0.dtd"
   xmlns="http://www.w3.org/2000/svg"
   xmlns:svg="http://www.w3.org/2000/svg">
  <defs
     id="defs8" />
  <sodipodi:namedview
     id="namedview6"
     pagecolor="#ffffff"
     bordercolor="#666666"
     borderopacity="1.0"
     inkscape:pageshadow="2"
     inkscape:pageopacity="0.0"
     inkscape:pagecheckerboard="0"
     showgrid="false"
     units="mm"
     height="2.64583mm"
     inkscape:zoom="12.53125"
     inkscape:cx="30.723192"
     inkscape:cy="19.032419"
     inkscape:window-width="1920"
     inkscape:window-height="991"
     inkscape:window-x="1911"
     inkscape:window-y="-9"
     inkscape:window-maximized="1"
     inkscape:current-layer="svg4"
     inkscape:document-units="mm" />
  <!--! Font Awesome Pro 6.4.0 by @fontawesome - https://fontawesome.com License - https://fontawesome.com/license (Commercial License) Copyright 2023 Fonticons, Inc. -->
  <path
     d="m 16.342162,5.8671135 c 0.01079,0.1513328 0.01079,0.3027023 0.01079,0.4540351 0,4.6158794 -3.513253,9.9344544 -9.9344589,9.9344544 -1.9782505,0 -3.8159502,-0.572958 -5.3617979,-1.567443 0.2810698,0.03243 0.5512947,0.04322 0.8431834,0.04322 1.6322937,0 3.1349185,-0.551295 4.3348409,-1.491775 -1.5350341,-0.03243 -2.8214392,-1.03777 -3.2646556,-2.421472 0.2162197,0.03243 0.4324028,0.05404 0.6594361,0.05404 0.3134845,0 0.6270004,-0.04327 0.9188526,-0.118887 C 2.9484712,10.428957 1.7485121,9.0236596 1.7485121,7.3264785 V 7.2832555 C 2.2133295,7.5426982 2.7538787,7.7048446 3.3267692,7.7264404 2.3862947,7.0994452 1.7701446,6.0292599 1.7701446,4.8185237 c 0,-0.6485909 0.1729286,-1.2431453 0.4756257,-1.7620307 1.7188129,2.1187697 4.3024315,3.5024344 7.1995029,3.6538039 -0.054037,-0.2594426 -0.086483,-0.5296675 -0.086483,-0.799929 0,-1.924214 1.5566608,-3.4916524 3.4916568,-3.4916524 1.00533,0 1.913369,0.4215891 2.551178,1.1026263 0.789115,-0.1513381 1.545816,-0.4432215 2.216071,-0.8431836 -0.259479,0.8107742 -0.810774,1.491806 -1.535034,1.9241825 0.702664,-0.075638 1.383701,-0.2702615 2.01066,-0.5404863 -0.475563,0.6918192 -1.070149,1.3079693 -1.751186,1.8052591 z"
     id="path2"
     style="fill:#feffff;fill-opacity:1;stroke-width:1" />
</svg>
