<?xml version="1.0" encoding="UTF-8" standalone="no"?>
<svg
   viewBox="0 0 170.07874 75.590556"
   version="1.1"
   id="svg4"
   sodipodi:docname="Unlimited2.svg"
   width="45mm"
   height="20mm"
   inkscape:version="1.1.1 (3bf5ae0d25, 2021-09-20)"
   xmlns:inkscape="http://www.inkscape.org/namespaces/inkscape"
   xmlns:sodipodi="http://sodipodi.sourceforge.net/DTD/sodipodi-0.dtd"
   xmlns="http://www.w3.org/2000/svg"
   xmlns:svg="http://www.w3.org/2000/svg">
  <defs
     id="defs8" />
  <sodipodi:namedview
     id="namedview6"
     pagecolor="#ffffff"
     bordercolor="#666666"
     borderopacity="1.0"
     inkscape:pageshadow="2"
     inkscape:pageopacity="0.0"
     inkscape:pagecheckerboard="0"
     showgrid="false"
     units="mm"
     width="50mm"
     inkscape:zoom="2.2152329"
     inkscape:cx="187.79063"
     inkscape:cy="97.732385"
     inkscape:window-width="1920"
     inkscape:window-height="991"
     inkscape:window-x="1911"
     inkscape:window-y="-9"
     inkscape:window-maximized="1"
     inkscape:current-layer="g108"
     inkscape:document-units="mm" />
  <!--! Font Awesome Pro 6.4.0 by @fontawesome - https://fontawesome.com License - https://fontawesome.com/license (Commercial License) Copyright 2023 Fonticons, Inc. -->
  <g
     id="g20436"
     transform="translate(-22.982544,-25.536158)">
    <g
       id="g108"
       transform="matrix(0.10936151,0,0,0.10936151,13.665603,23.716486)"
       style="stroke-width:9.14399">
      <g
         id="g121"
         transform="translate(-61.916639,8.2555519)">
        <path
           d="m 309.8395,116.8134 c -7.78104,-25.342037 6.45497,-52.193542 31.79699,-59.974574 25.34203,-7.781031 52.19356,6.454927 59.9746,31.796968 7.78103,25.342046 -6.45498,52.193546 -31.797,59.974576 -25.34202,7.78104 -52.19355,-6.45492 -59.97459,-31.79697 z m 102.66595,159.59539 4.13661,78.54545 62.09868,32.92313 c 11.24523,5.96194 19.7015,16.12764 23.42917,28.26826 l 26.24039,85.46228 c 5.19524,16.92038 -4.27761,34.78781 -21.19799,39.98306 -16.92039,5.19525 -34.78782,-4.27761 -39.98307,-21.19799 l -24.27383,-79.05739 -92.33587,-48.95411 c -19.74164,-10.46651 -32.55193,-30.38376 -33.85468,-52.6836 l -5.15395,-86.28787 c -2.0745,-35.03422 24.70517,-65.01503 59.7025,-66.86899 19.572,-0.98824 38.84564,5.22845 53.95426,17.64052 l 39.6529,32.38776 29.53897,-9.06967 -7.0444,-22.94289 c -3.90377,-12.71419 3.18431,-26.08352 15.8985,-29.9873 12.71419,-3.90377 26.08352,3.18431 29.98729,15.8985 l 16.37824,53.34223 c 0.0294,0.0956 0.0587,0.19119 0.0587,0.19119 l 0.0587,0.19119 90.28955,228.26694 c 4.89194,12.36764 -15.54909,21.15938 -28.26327,25.06315 -12.71419,3.90377 -42.63032,-29.45066 -46.08626,-40.53181 l -52.49198,-168.31014 -37.66458,11.56455 c -15.29526,4.69627 -31.98271,1.45139 -44.42381,-8.74609 l -18.58453,-15.21531 z m -84.25951,278.1845 -5.87042,-142.45136 c 4.10063,3.13446 8.52494,5.96032 13.14799,8.41134 l 52.35282,27.75612 4.20254,103.63102 c 0.71734,17.66764 -13.01798,32.55491 -30.68562,33.27225 -17.66764,0.71735 -32.55491,-13.01798 -33.27225,-30.68562 z m -48.50134,-347.05024 7.61887,144.73891 c 0.68369,12.44759 -8.40273,23.39688 -20.74799,25.09523 l -48.13833,6.41182 c -14.05844,1.91054 -26.67567,-8.86052 -27.15982,-23.0431 l -3.11977,-94.65341 c -1.13282,-36.0556 21.97222,-68.46481 56.48216,-79.06077 l 4.01501,-1.23277 c 14.91288,-4.57886 30.22105,6.09822 31.02052,21.64849 z"
           id="path2"
           style="fill:#b90000;fill-opacity:0.572414;stroke-width:9.14399"
           sodipodi:nodetypes="sssssccssssscsccccccssscccssscscccccsccsccccccccsscc" />
        <g
           aria-label="Unlimited"
           transform="matrix(1.0753643,0,0,1.1787418,162.5209,-78.894993)"
           id="text5475"
           style="font-size:298.304px;line-height:1.25;font-family:'Exotc350 DmBd BT';-inkscape-font-specification:'Exotc350 DmBd BT, Normal';stroke-width:8.1217">
          <path
             d="m 269.44582,555.13146 17.44748,-31.6297 102.92408,56.77468 q 30.09923,16.60326 46.60365,14.72848 16.37689,-1.94512 27.42227,-21.96877 11.04539,-20.02364 3.88472,-34.78614 -7.21786,-14.96039 -37.31709,-31.56364 l -102.92408,-56.77469 8.37198,-15.17715 108.66334,59.94056 q 33.03263,18.22137 41.31109,42.41684 8.22127,23.99759 -8.38198,54.09682 -7.38704,13.39161 -19.05775,23.0895 -11.60035,9.57035 -24.3798,12.83449 -12.45403,3.27731 -24.74141,0.8244 -12.41492,-2.52326 -31.16317,-12.86512 z"
             style="font-size:298.304px;stroke-width:8.1217"
             id="path11" />
          <path
             d="m 557.35128,498.66297 -10.15212,6.82882 -59.10182,-87.86415 q -7.56048,-11.23985 -7.26784,-18.63391 0.3322,-7.59622 8.30887,-12.96172 6.4055,-4.30866 15.09378,-3.65778 8.60699,0.53002 19.69892,6.05914 l 60.84516,30.69361 q 0.28345,0.16042 0.80862,0.15825 0.64602,-0.0835 1.12945,-0.40864 0.96687,-0.65037 0.92297,-1.49855 0.077,-0.92947 -1.14247,-2.74235 l -41.4607,-61.63785 10.15211,-6.82882 65.28028,97.0494 q 4.95902,7.37237 4.85335,11.12983 0.0152,3.67617 -4.21486,6.52151 -3.02146,2.03239 -6.25376,1.92454 -3.03014,-0.0683 -7.32145,-2.27244 L 502.56731,409.64983 q -1.0525,-0.52082 -1.57767,-0.51866 -0.60646,-0.11868 -1.0899,0.2065 -1.08772,0.73166 -1.12512,1.45898 -0.0374,0.72732 1.26334,2.66105 z"
             style="font-size:298.304px;stroke-width:8.1217"
             id="path13" />
          <path
             d="m 574.7176,246.20197 25.72493,-12.03978 79.4626,169.78454 q 2.4697,5.27691 5.77045,6.14439 3.239,0.73555 11.9459,-3.33946 l 6.46421,-3.02538 4.69243,10.02613 -28.09954,13.15115 q -9.76228,4.56895 -15.63398,2.33162 -5.73977,-2.29908 -11.66705,-14.96366 z"
             style="font-size:298.304px;stroke-width:8.1217"
             id="path15" />
          <path
             d="m 669.17655,253.19174 q -2.40252,-6.41041 0.41153,-12.59822 2.95045,-6.23893 9.49726,-8.69257 6.27403,-2.35141 12.46184,0.46265 6.13669,2.67766 8.59033,9.22447 2.3514,6.27403 -0.46265,12.46184 -2.67766,6.13669 -9.08808,8.53921 -6.54681,2.45364 -12.87101,-0.3093 -6.18781,-2.81405 -8.53922,-9.08808 z m 15.01277,33.41648 26.59641,-9.96791 44.83005,119.61567 -26.59641,9.96791 z"
             style="font-size:298.304px;stroke-width:8.1217"
             id="path17" />
          <path
             d="M 794.12113,381.54477 767.5814,275.27517 q -2.57633,-10.31607 1.27597,-17.1332 3.99361,-6.85243 14.02705,-9.35817 9.04422,-2.2587 15.43755,1.09891 6.49936,3.18101 12.78505,13.32135 l 35.63028,59.11052 1.46597,-71.67778 q 0.21425,-9.36155 4.56079,-14.80082 4.45255,-5.61587 13.49678,-7.87457 10.17475,-2.54104 17.02703,2.05313 6.9583,4.41756 9.74638,15.58152 l 26.15151,104.71513 -26.5674,6.63493 -25.86917,-103.5846 q -0.56468,-2.26106 -1.5536,-3.21513 -1.02421,-1.09538 -2.29605,-0.77775 -1.41316,0.35292 -2.0493,1.41257 -0.49483,1.02436 -0.63673,3.46188 l -2.95767,104.17809 q -0.1075,6.18217 -1.73329,9.29053 -1.44919,3.21439 -4.69946,4.02611 -3.25027,0.81172 -6.21731,-0.84937 -2.82573,-1.69638 -5.29766,-5.58294 l -53.78047,-90.90912 q -0.24719,-0.38865 -0.84746,-1.58991 -1.76549,-3.46246 -3.31996,-3.07425 -0.98922,0.24705 -1.34287,1.83667 -0.24764,1.41301 0.17572,3.70936 l 25.79859,103.30197 z"
             style="font-size:298.304px;stroke-width:8.1217"
             id="path19" />
          <path
             d="m 934.92907,182.72062 q -0.95754,-6.77855 3.12955,-12.21027 4.23131,-5.4521 11.15408,-6.43001 6.63432,-0.93718 12.06604,3.14991 5.41135,3.94286 6.38927,10.86563 0.93717,6.63432 -3.14992,12.06605 -3.94286,5.41135 -10.72141,6.36889 -6.92277,0.97792 -12.49871,-3.0888 -5.43173,-4.08708 -6.3689,-10.7214 z m 7.42129,35.87434 28.12375,-3.97279 17.86737,126.48478 -28.12376,3.97279 z"
             style="font-size:298.304px;stroke-width:8.1217"
             id="path21" />
          <path
             d="m 1043.8249,335.29124 -7.8589,-116.40565 -27.1759,1.83474 -0.7457,-11.04473 82.5449,-5.57291 0.7456,11.04473 -27.1758,1.83474 7.859,116.40566 z"
             style="font-size:298.304px;stroke-width:8.1217"
             id="path23" />
          <path
             d="m 1131.6434,226.37944 q 0.485,-14.26608 5.1461,-18.47983 4.8068,-4.20881 19.5096,-3.70901 l 60.8492,2.06852 -0.3761,11.06348 -43.5261,-1.47963 q -7.7153,-0.26227 -10.4099,1.83223 -2.5489,2.09946 -2.7469,7.92235 l -1.0936,32.17144 46.1464,1.56871 -0.4256,12.5192 -46.1464,-1.5687 -1.3806,40.61463 q -0.198,5.82289 2.3481,8.09554 2.551,2.12709 12.1588,2.45369 l 42.9438,1.45984 -0.3761,11.06348 -66.8177,-2.2714 q -10.7723,-0.3662 -14.986,-5.02739 -4.0682,-4.65625 -3.5932,-18.63117 z"
             style="font-size:298.304px;stroke-width:8.1217"
             id="path25" />
          <path
             d="m 1341.1076,235.6515 q -5.1616,-1.71247 -8.9726,-2.72612 -3.7841,-1.15679 -6.7901,-1.72251 -20.6126,-3.87925 -33.532,8.06603 -12.7763,11.97221 -18.0295,39.88517 -4.7143,25.05008 3.9909,39.43473 8.8754,14.26845 31.492,18.52485 l 12.4535,2.34372 z m 2.0474,-10.87889 15.0944,-79.41762 27.7698,5.22621 -38.577,204.98128 -43.6587,-8.21648 q -31.6347,-5.95357 -47.5024,-27.17007 -15.6976,-21.33269 -10.2558,-50.24765 5.4686,-29.0581 26.2271,-42.49234 20.9287,-13.55045 51.5613,-7.78545 3.2923,0.61961 7.7921,1.91109 4.6699,1.17529 11.5492,3.21103 z"
             style="font-size:298.304px;stroke-width:8.1217"
             id="path27" />
        </g>
      </g>
    </g>
    <path
       id="path18056"
       style="fill-opacity:0;fill-rule:evenodd;stroke-width:1.76242;stroke-linecap:round;stroke-linejoin:round;paint-order:fill markers stroke"
       transform="matrix(-0.99310464,0.11723126,-0.01164363,-0.99993221,0,0)"
       d="m -440.91754,-728.73236 a 561.48969,271.53528 0 0 1 -561.48966,271.53528 561.48969,271.53528 0 0 1 -561.4897,-271.53528 561.48969,271.53528 0 0 1 561.4897,-271.53524 561.48969,271.53528 0 0 1 561.48966,271.53524 z" />
  </g>
</svg>
