<?xml version="1.0" encoding="UTF-8" standalone="no"?>
<svg
   viewBox="0 0 113 113"
   version="1.1"
   id="svg4"
   sodipodi:docname="water.svg"
   width="113"
   height="113"
   inkscape:version="1.1.1 (3bf5ae0d25, 2021-09-20)"
   xmlns:inkscape="http://www.inkscape.org/namespaces/inkscape"
   xmlns:sodipodi="http://sodipodi.sourceforge.net/DTD/sodipodi-0.dtd"
   xmlns="http://www.w3.org/2000/svg"
   xmlns:svg="http://www.w3.org/2000/svg">
  <defs
     id="defs8" />
  <sodipodi:namedview
     id="namedview6"
     pagecolor="#ffffff"
     bordercolor="#666666"
     borderopacity="1.0"
     inkscape:pageshadow="2"
     inkscape:pageopacity="0.0"
     inkscape:pagecheckerboard="0"
     showgrid="false"
     inkscape:zoom="4.4304659"
     inkscape:cx="69.744358"
     inkscape:cy="54.96036"
     inkscape:window-width="1920"
     inkscape:window-height="991"
     inkscape:window-x="-9"
     inkscape:window-y="-9"
     inkscape:window-maximized="1"
     inkscape:current-layer="svg4" />
  <!--! Font Awesome Pro 6.4.0 by @fontawesome - https://fontawesome.com License - https://fontawesome.com/license (Commercial License) Copyright 2023 Fonticons, Inc. -->
  <path
     d="m 52.140635,23.435855 c 1.8009,-1.28172 4.20211,-1.28172 6.00301,0 3.65048,2.51478 8.11218,4.23456 12.57388,4.23456 4.36436,0 8.9883,-1.75223 12.55766,-4.23456 v 0 c 1.9307,-1.37907 4.55905,-1.2655 6.35995,0.27581 2.33631,1.9307 5.27292,3.40712 8.20953,4.08854 2.790585,0.64898 4.526595,3.43957 3.877615,6.23016 -0.64897,2.79059 -3.439555,4.5266 -6.230145,3.87762 -3.97497,-0.92479 -7.28474,-2.67702 -9.44258,-4.05609 -4.70507,2.531 -9.97799,4.20211 -15.33203,4.20211 -5.17557,0 -9.83196,-1.60621 -13.04438,-3.0664 -0.94102,-0.43806 -1.80091,-0.8599 -2.531,-1.24928 -0.7301,0.38938 -1.57377,0.82744 -2.53101,1.24928 -3.21242,1.46019 -7.86881,3.0664 -13.04438,3.0664 -5.35404,0 -10.62696,-1.67111 -15.33203,-4.18588 -2.17406,1.36284 -5.46761,3.1313 -9.44258,4.05609 -2.79059,0.64897 -5.5811803,-1.08704 -6.2301503,-3.87763 -0.64898,-2.79059 1.08703,-5.58118 3.8776203,-6.23015 2.92039,-0.69765 5.87322,-2.17407 8.19331,-4.10477 1.8009,-1.54131 4.42925,-1.63866 6.35995,-0.27581 v 0 c 3.6018,2.48233 8.20952,4.23456 12.57388,4.23456 4.4617,0 8.9234,-1.71978 12.57388,-4.23456 z m 6.00301,46.72617 c 3.65048,2.51477 8.11218,4.23455 12.57388,4.23455 4.36436,0 8.9883,-1.75223 12.55766,-4.23455 v 0 c 1.9307,-1.37908 4.55905,-1.26551 6.35995,0.27581 2.33631,1.9307 5.27292,3.40712 8.20953,4.08854 2.790585,0.64897 4.526595,3.43956 3.877615,6.23015 -0.64897,2.79059 -3.439555,4.5266 -6.230145,3.87763 -3.97497,-0.92479 -7.28474,-2.67702 -9.44258,-4.05609 -4.70507,2.531 -9.97799,4.20211 -15.33203,4.20211 -5.17557,0 -9.83196,-1.60622 -13.04438,-3.06641 -0.94102,-0.43806 -1.80091,-0.85989 -2.531,-1.24927 -0.7301,0.38938 -1.57377,0.82744 -2.53101,1.24927 -3.21242,1.46019 -7.86881,3.06641 -13.04438,3.06641 -5.35404,0 -10.62696,-1.67111 -15.33203,-4.18589 -2.17406,1.36285 -5.46761,3.1313 -9.44258,4.05609 -2.79059,0.64898 -5.5811803,-1.08703 -6.2301503,-3.87762 -0.64898,-2.79059 1.08703,-5.58118 3.8776203,-6.23016 2.93661,-0.68142 5.87322,-2.15784 8.20953,-4.08854 1.8009,-1.52509 4.42925,-1.63866 6.35995,-0.27581 v 0 c 3.58558,2.4661 8.1933,4.21833 12.55766,4.21833 4.4617,0 8.9234,-1.71978 12.57388,-4.23455 1.8009,-1.28173 4.20211,-1.28173 6.00301,0 z m 0,-23.36309 c 3.65048,2.51478 8.11218,4.23456 12.57388,4.23456 4.36436,0 8.9883,-1.75223 12.55766,-4.23456 v 0 c 1.9307,-1.37907 4.55905,-1.2655 6.35995,0.27582 2.33631,1.9307 5.27292,3.40711 8.20953,4.08854 2.790585,0.64897 4.526595,3.43956 3.877615,6.23015 -0.64897,2.79059 -3.439555,4.5266 -6.230145,3.87762 -3.97497,-0.92478 -7.28474,-2.67702 -9.44258,-4.05609 -4.70507,2.531 -9.97799,4.20211 -15.33203,4.20211 -5.17557,0 -9.83196,-1.60621 -13.04438,-3.0664 -0.94102,-0.43806 -1.80091,-0.85989 -2.531,-1.24928 -0.7301,0.38939 -1.57377,0.82745 -2.53101,1.24928 -3.21242,1.46019 -7.86881,3.0664 -13.04438,3.0664 -5.35404,0 -10.62696,-1.67111 -15.33203,-4.18588 -2.17406,1.36284 -5.46761,3.1313 -9.44258,4.05609 -2.79059,0.64897 -5.5811803,-1.08703 -6.2301503,-3.87762 -0.64898,-2.79059 1.08703,-5.58119 3.8776203,-6.23016 2.93661,-0.68142 5.87322,-2.15784 8.20953,-4.08854 1.8009,-1.54131 4.42925,-1.63866 6.35995,-0.27581 v 0 c 3.58558,2.4661 8.1933,4.21833 12.55766,4.21833 4.4617,0 8.9234,-1.71978 12.57388,-4.23456 1.8009,-1.28172 4.20211,-1.28172 6.00301,0 z"
     id="path2"
     style="stroke-width:1;fill-opacity:1;fill:#d3d3d3" />
</svg>
